M48
; DRILL file {KiCad 8.0.0} date 2024-03-18T12:56:27-0400
; FORMAT={-:-/ absolute / metric / decimal}
; #@! TF.CreationDate,2024-03-18T12:56:27-04:00
; #@! TF.GenerationSoftware,Kicad,Pcbnew,8.0.0
; #@! TF.FileFunction,NonPlated,1,2,NPTH
FMAT,2
METRIC
; #@! TA.AperFunction,NonPlated,NPTH,ComponentDrill
T1C1.702
; #@! TA.AperFunction,NonPlated,NPTH,ComponentDrill
T2C3.988
%
G90
G05
T1
X99.92Y-88.0
X99.92Y-107.0
X99.92Y-126.0
X100.0Y-69.0
X110.08Y-88.0
X110.08Y-107.0
X110.08Y-126.0
X110.16Y-69.0
X118.92Y-69.0
X118.92Y-88.0
X118.92Y-107.0
X118.92Y-126.0
X129.08Y-69.0
X129.08Y-88.0
X129.08Y-107.0
X129.08Y-126.0
X137.92Y-69.0
X137.92Y-88.0
X137.92Y-107.0
X137.92Y-126.0
X148.08Y-69.0
X148.08Y-88.0
X148.08Y-107.0
X148.08Y-126.0
T2
X105.0Y-88.0
X105.0Y-107.0
X105.0Y-126.0
X105.08Y-69.0
X124.0Y-69.0
X124.0Y-88.0
X124.0Y-107.0
X124.0Y-126.0
X143.0Y-69.0
X143.0Y-88.0
X143.0Y-107.0
X143.0Y-126.0
M30
