%TF.GenerationSoftware,KiCad,Pcbnew,8.0.0*%
%TF.CreationDate,2024-03-18T12:55:46-04:00*%
%TF.ProjectId,mmp,6d6d702e-6b69-4636-9164-5f7063625858,rev?*%
%TF.SameCoordinates,Original*%
%TF.FileFunction,Soldermask,Top*%
%TF.FilePolarity,Negative*%
%FSLAX46Y46*%
G04 Gerber Fmt 4.6, Leading zero omitted, Abs format (unit mm)*
G04 Created by KiCad (PCBNEW 8.0.0) date 2024-03-18 12:55:46*
%MOMM*%
%LPD*%
G01*
G04 APERTURE LIST*
G04 Aperture macros list*
%AMRoundRect*
0 Rectangle with rounded corners*
0 $1 Rounding radius*
0 $2 $3 $4 $5 $6 $7 $8 $9 X,Y pos of 4 corners*
0 Add a 4 corners polygon primitive as box body*
4,1,4,$2,$3,$4,$5,$6,$7,$8,$9,$2,$3,0*
0 Add four circle primitives for the rounded corners*
1,1,$1+$1,$2,$3*
1,1,$1+$1,$4,$5*
1,1,$1+$1,$6,$7*
1,1,$1+$1,$8,$9*
0 Add four rect primitives between the rounded corners*
20,1,$1+$1,$2,$3,$4,$5,0*
20,1,$1+$1,$4,$5,$6,$7,0*
20,1,$1+$1,$6,$7,$8,$9,0*
20,1,$1+$1,$8,$9,$2,$3,0*%
G04 Aperture macros list end*
%ADD10C,1.701800*%
%ADD11C,3.987800*%
%ADD12RoundRect,0.102000X-0.900000X-0.900000X0.900000X-0.900000X0.900000X0.900000X-0.900000X0.900000X0*%
%ADD13C,2.004000*%
%ADD14C,0.700000*%
%ADD15C,4.400000*%
%ADD16R,1.700000X1.700000*%
%ADD17O,1.700000X1.700000*%
G04 APERTURE END LIST*
D10*
%TO.C,SW4*%
X99920000Y-88000000D03*
D11*
X105000000Y-88000000D03*
D10*
X110080000Y-88000000D03*
%TD*%
D12*
%TO.C,U1*%
X102000000Y-40880000D03*
D13*
X102000000Y-43420000D03*
X102000000Y-45960000D03*
X102000000Y-48500000D03*
X102000000Y-51040000D03*
X102000000Y-53580000D03*
X102000000Y-56120000D03*
X117240000Y-56120000D03*
X117240000Y-53580000D03*
X117240000Y-51040000D03*
X117240000Y-48500000D03*
X117240000Y-45960000D03*
X117240000Y-43420000D03*
X117240000Y-40880000D03*
%TD*%
D10*
%TO.C,SW10*%
X99920000Y-126000000D03*
D11*
X105000000Y-126000000D03*
D10*
X110080000Y-126000000D03*
%TD*%
D14*
%TO.C,REF\u002A\u002A*%
X149850000Y-40500000D03*
X150333274Y-39333274D03*
X150333274Y-41666726D03*
X151500000Y-38850000D03*
D15*
X151500000Y-40500000D03*
D14*
X151500000Y-42150000D03*
X152666726Y-39333274D03*
X152666726Y-41666726D03*
X153150000Y-40500000D03*
%TD*%
D10*
%TO.C,SW2*%
X118920000Y-69000000D03*
D11*
X124000000Y-69000000D03*
D10*
X129080000Y-69000000D03*
%TD*%
%TO.C,SW3*%
X137920000Y-69000000D03*
D11*
X143000000Y-69000000D03*
D10*
X148080000Y-69000000D03*
%TD*%
%TO.C,SW5*%
X118920000Y-88000000D03*
D11*
X124000000Y-88000000D03*
D10*
X129080000Y-88000000D03*
%TD*%
D14*
%TO.C,REF\u002A\u002A*%
X94850000Y-40500000D03*
X95333274Y-39333274D03*
X95333274Y-41666726D03*
X96500000Y-38850000D03*
D15*
X96500000Y-40500000D03*
D14*
X96500000Y-42150000D03*
X97666726Y-39333274D03*
X97666726Y-41666726D03*
X98150000Y-40500000D03*
%TD*%
D10*
%TO.C,SW7*%
X99920000Y-107000000D03*
D11*
X105000000Y-107000000D03*
D10*
X110080000Y-107000000D03*
%TD*%
%TO.C,SW1*%
X100000000Y-69000000D03*
D11*
X105080000Y-69000000D03*
D10*
X110160000Y-69000000D03*
%TD*%
%TO.C,SW9*%
X137920000Y-107000000D03*
D11*
X143000000Y-107000000D03*
D10*
X148080000Y-107000000D03*
%TD*%
%TO.C,SW12*%
X137920000Y-126000000D03*
D11*
X143000000Y-126000000D03*
D10*
X148080000Y-126000000D03*
%TD*%
%TO.C,SW11*%
X118920000Y-126000000D03*
D11*
X124000000Y-126000000D03*
D10*
X129080000Y-126000000D03*
%TD*%
%TO.C,SW8*%
X118920000Y-107000000D03*
D11*
X124000000Y-107000000D03*
D10*
X129080000Y-107000000D03*
%TD*%
%TO.C,SW6*%
X137920000Y-88000000D03*
D11*
X143000000Y-88000000D03*
D10*
X148080000Y-88000000D03*
%TD*%
D16*
%TO.C,J2*%
X122000000Y-54500000D03*
D17*
X122000000Y-51960000D03*
X122000000Y-49420000D03*
X122000000Y-46880000D03*
X122000000Y-44340000D03*
X122000000Y-41800000D03*
%TD*%
M02*
