%TF.GenerationSoftware,KiCad,Pcbnew,8.0.0*%
%TF.CreationDate,2024-03-18T12:56:35-04:00*%
%TF.ProjectId,mmp,6d6d702e-6b69-4636-9164-5f7063625858,rev?*%
%TF.SameCoordinates,Original*%
%TF.FileFunction,Drillmap*%
%TF.FilePolarity,Positive*%
%FSLAX45Y45*%
G04 Gerber Fmt 4.5, Leading zero omitted, Abs format (unit mm)*
G04 Created by KiCad (PCBNEW 8.0.0) date 2024-03-18 12:56:35*
%MOMM*%
%LPD*%
G01*
G04 APERTURE LIST*
%ADD10C,0.050000*%
%ADD11C,0.200000*%
%ADD12C,0.170180*%
%ADD13C,0.398780*%
G04 APERTURE END LIST*
D10*
X9600000Y-3700000D02*
X15200000Y-3700000D01*
X9600000Y-13800000D02*
G75*
G02*
X9300000Y-13500000I0J300000D01*
G01*
X9300000Y-13500000D02*
X9300000Y-4000000D01*
X15200000Y-13800000D02*
X9600000Y-13800000D01*
X15500000Y-13500000D02*
G75*
G02*
X15200000Y-13800000I-300000J0D01*
G01*
X15500000Y-4000000D02*
X15500000Y-13500000D01*
X9300000Y-4000000D02*
G75*
G02*
X9600000Y-3700000I300000J0D01*
G01*
X15200000Y-3700000D02*
G75*
G02*
X15500000Y-4000000I0J-300000D01*
G01*
D11*
D12*
X9906910Y-8714910D02*
X10077090Y-8885090D01*
X10077090Y-8714910D02*
X9906910Y-8885090D01*
X9906910Y-10614910D02*
X10077090Y-10785090D01*
X10077090Y-10614910D02*
X9906910Y-10785090D01*
X9906910Y-12514910D02*
X10077090Y-12685090D01*
X10077090Y-12514910D02*
X9906910Y-12685090D01*
X9914910Y-6814910D02*
X10085090Y-6985090D01*
X10085090Y-6814910D02*
X9914910Y-6985090D01*
X10922910Y-8714910D02*
X11093090Y-8885090D01*
X11093090Y-8714910D02*
X10922910Y-8885090D01*
X10922910Y-10614910D02*
X11093090Y-10785090D01*
X11093090Y-10614910D02*
X10922910Y-10785090D01*
X10922910Y-12514910D02*
X11093090Y-12685090D01*
X11093090Y-12514910D02*
X10922910Y-12685090D01*
X10930910Y-6814910D02*
X11101090Y-6985090D01*
X11101090Y-6814910D02*
X10930910Y-6985090D01*
X11806910Y-6814910D02*
X11977090Y-6985090D01*
X11977090Y-6814910D02*
X11806910Y-6985090D01*
X11806910Y-8714910D02*
X11977090Y-8885090D01*
X11977090Y-8714910D02*
X11806910Y-8885090D01*
X11806910Y-10614910D02*
X11977090Y-10785090D01*
X11977090Y-10614910D02*
X11806910Y-10785090D01*
X11806910Y-12514910D02*
X11977090Y-12685090D01*
X11977090Y-12514910D02*
X11806910Y-12685090D01*
X12822910Y-6814910D02*
X12993090Y-6985090D01*
X12993090Y-6814910D02*
X12822910Y-6985090D01*
X12822910Y-8714910D02*
X12993090Y-8885090D01*
X12993090Y-8714910D02*
X12822910Y-8885090D01*
X12822910Y-10614910D02*
X12993090Y-10785090D01*
X12993090Y-10614910D02*
X12822910Y-10785090D01*
X12822910Y-12514910D02*
X12993090Y-12685090D01*
X12993090Y-12514910D02*
X12822910Y-12685090D01*
X13706910Y-6814910D02*
X13877090Y-6985090D01*
X13877090Y-6814910D02*
X13706910Y-6985090D01*
X13706910Y-8714910D02*
X13877090Y-8885090D01*
X13877090Y-8714910D02*
X13706910Y-8885090D01*
X13706910Y-10614910D02*
X13877090Y-10785090D01*
X13877090Y-10614910D02*
X13706910Y-10785090D01*
X13706910Y-12514910D02*
X13877090Y-12685090D01*
X13877090Y-12514910D02*
X13706910Y-12685090D01*
X14722910Y-6814910D02*
X14893090Y-6985090D01*
X14893090Y-6814910D02*
X14722910Y-6985090D01*
X14722910Y-8714910D02*
X14893090Y-8885090D01*
X14893090Y-8714910D02*
X14722910Y-8885090D01*
X14722910Y-10614910D02*
X14893090Y-10785090D01*
X14893090Y-10614910D02*
X14722910Y-10785090D01*
X14722910Y-12514910D02*
X14893090Y-12685090D01*
X14893090Y-12514910D02*
X14722910Y-12685090D01*
D13*
X10699390Y-8800000D02*
G75*
G02*
X10300610Y-8800000I-199390J0D01*
G01*
X10300610Y-8800000D02*
G75*
G02*
X10699390Y-8800000I199390J0D01*
G01*
X10699390Y-10700000D02*
G75*
G02*
X10300610Y-10700000I-199390J0D01*
G01*
X10300610Y-10700000D02*
G75*
G02*
X10699390Y-10700000I199390J0D01*
G01*
X10699390Y-12600000D02*
G75*
G02*
X10300610Y-12600000I-199390J0D01*
G01*
X10300610Y-12600000D02*
G75*
G02*
X10699390Y-12600000I199390J0D01*
G01*
X10707390Y-6900000D02*
G75*
G02*
X10308610Y-6900000I-199390J0D01*
G01*
X10308610Y-6900000D02*
G75*
G02*
X10707390Y-6900000I199390J0D01*
G01*
X12599390Y-6900000D02*
G75*
G02*
X12200610Y-6900000I-199390J0D01*
G01*
X12200610Y-6900000D02*
G75*
G02*
X12599390Y-6900000I199390J0D01*
G01*
X12599390Y-8800000D02*
G75*
G02*
X12200610Y-8800000I-199390J0D01*
G01*
X12200610Y-8800000D02*
G75*
G02*
X12599390Y-8800000I199390J0D01*
G01*
X12599390Y-10700000D02*
G75*
G02*
X12200610Y-10700000I-199390J0D01*
G01*
X12200610Y-10700000D02*
G75*
G02*
X12599390Y-10700000I199390J0D01*
G01*
X12599390Y-12600000D02*
G75*
G02*
X12200610Y-12600000I-199390J0D01*
G01*
X12200610Y-12600000D02*
G75*
G02*
X12599390Y-12600000I199390J0D01*
G01*
X14499390Y-6900000D02*
G75*
G02*
X14100610Y-6900000I-199390J0D01*
G01*
X14100610Y-6900000D02*
G75*
G02*
X14499390Y-6900000I199390J0D01*
G01*
X14499390Y-8800000D02*
G75*
G02*
X14100610Y-8800000I-199390J0D01*
G01*
X14100610Y-8800000D02*
G75*
G02*
X14499390Y-8800000I199390J0D01*
G01*
X14499390Y-10700000D02*
G75*
G02*
X14100610Y-10700000I-199390J0D01*
G01*
X14100610Y-10700000D02*
G75*
G02*
X14499390Y-10700000I199390J0D01*
G01*
X14499390Y-12600000D02*
G75*
G02*
X14100610Y-12600000I-199390J0D01*
G01*
X14100610Y-12600000D02*
G75*
G02*
X14499390Y-12600000I199390J0D01*
G01*
D11*
X9558277Y-14113984D02*
X9558277Y-13913984D01*
X9558277Y-13913984D02*
X9605896Y-13913984D01*
X9605896Y-13913984D02*
X9634467Y-13923508D01*
X9634467Y-13923508D02*
X9653515Y-13942555D01*
X9653515Y-13942555D02*
X9663039Y-13961603D01*
X9663039Y-13961603D02*
X9672563Y-13999698D01*
X9672563Y-13999698D02*
X9672563Y-14028269D01*
X9672563Y-14028269D02*
X9663039Y-14066365D01*
X9663039Y-14066365D02*
X9653515Y-14085412D01*
X9653515Y-14085412D02*
X9634467Y-14104460D01*
X9634467Y-14104460D02*
X9605896Y-14113984D01*
X9605896Y-14113984D02*
X9558277Y-14113984D01*
X9758277Y-14113984D02*
X9758277Y-13980650D01*
X9758277Y-14018746D02*
X9767801Y-13999698D01*
X9767801Y-13999698D02*
X9777324Y-13990174D01*
X9777324Y-13990174D02*
X9796372Y-13980650D01*
X9796372Y-13980650D02*
X9815420Y-13980650D01*
X9882086Y-14113984D02*
X9882086Y-13980650D01*
X9882086Y-13913984D02*
X9872563Y-13923508D01*
X9872563Y-13923508D02*
X9882086Y-13933031D01*
X9882086Y-13933031D02*
X9891610Y-13923508D01*
X9891610Y-13923508D02*
X9882086Y-13913984D01*
X9882086Y-13913984D02*
X9882086Y-13933031D01*
X10005896Y-14113984D02*
X9986848Y-14104460D01*
X9986848Y-14104460D02*
X9977324Y-14085412D01*
X9977324Y-14085412D02*
X9977324Y-13913984D01*
X10110658Y-14113984D02*
X10091610Y-14104460D01*
X10091610Y-14104460D02*
X10082086Y-14085412D01*
X10082086Y-14085412D02*
X10082086Y-13913984D01*
X10339229Y-14113984D02*
X10339229Y-13913984D01*
X10339229Y-13913984D02*
X10405896Y-14056841D01*
X10405896Y-14056841D02*
X10472563Y-13913984D01*
X10472563Y-13913984D02*
X10472563Y-14113984D01*
X10653515Y-14113984D02*
X10653515Y-14009222D01*
X10653515Y-14009222D02*
X10643991Y-13990174D01*
X10643991Y-13990174D02*
X10624944Y-13980650D01*
X10624944Y-13980650D02*
X10586848Y-13980650D01*
X10586848Y-13980650D02*
X10567801Y-13990174D01*
X10653515Y-14104460D02*
X10634467Y-14113984D01*
X10634467Y-14113984D02*
X10586848Y-14113984D01*
X10586848Y-14113984D02*
X10567801Y-14104460D01*
X10567801Y-14104460D02*
X10558277Y-14085412D01*
X10558277Y-14085412D02*
X10558277Y-14066365D01*
X10558277Y-14066365D02*
X10567801Y-14047317D01*
X10567801Y-14047317D02*
X10586848Y-14037793D01*
X10586848Y-14037793D02*
X10634467Y-14037793D01*
X10634467Y-14037793D02*
X10653515Y-14028269D01*
X10748753Y-13980650D02*
X10748753Y-14180650D01*
X10748753Y-13990174D02*
X10767801Y-13980650D01*
X10767801Y-13980650D02*
X10805896Y-13980650D01*
X10805896Y-13980650D02*
X10824944Y-13990174D01*
X10824944Y-13990174D02*
X10834467Y-13999698D01*
X10834467Y-13999698D02*
X10843991Y-14018746D01*
X10843991Y-14018746D02*
X10843991Y-14075888D01*
X10843991Y-14075888D02*
X10834467Y-14094936D01*
X10834467Y-14094936D02*
X10824944Y-14104460D01*
X10824944Y-14104460D02*
X10805896Y-14113984D01*
X10805896Y-14113984D02*
X10767801Y-14113984D01*
X10767801Y-14113984D02*
X10748753Y-14104460D01*
X10929705Y-14094936D02*
X10939229Y-14104460D01*
X10939229Y-14104460D02*
X10929705Y-14113984D01*
X10929705Y-14113984D02*
X10920182Y-14104460D01*
X10920182Y-14104460D02*
X10929705Y-14094936D01*
X10929705Y-14094936D02*
X10929705Y-14113984D01*
X10929705Y-13990174D02*
X10939229Y-13999698D01*
X10939229Y-13999698D02*
X10929705Y-14009222D01*
X10929705Y-14009222D02*
X10920182Y-13999698D01*
X10920182Y-13999698D02*
X10929705Y-13990174D01*
X10929705Y-13990174D02*
X10929705Y-14009222D01*
D12*
X9127320Y-14357410D02*
X9297500Y-14527590D01*
X9297500Y-14357410D02*
X9127320Y-14527590D01*
D11*
X9663039Y-14533984D02*
X9548753Y-14533984D01*
X9605896Y-14533984D02*
X9605896Y-14333984D01*
X9605896Y-14333984D02*
X9586848Y-14362555D01*
X9586848Y-14362555D02*
X9567801Y-14381603D01*
X9567801Y-14381603D02*
X9548753Y-14391127D01*
X9748753Y-14514936D02*
X9758277Y-14524460D01*
X9758277Y-14524460D02*
X9748753Y-14533984D01*
X9748753Y-14533984D02*
X9739229Y-14524460D01*
X9739229Y-14524460D02*
X9748753Y-14514936D01*
X9748753Y-14514936D02*
X9748753Y-14533984D01*
X9824944Y-14333984D02*
X9958277Y-14333984D01*
X9958277Y-14333984D02*
X9872563Y-14533984D01*
X10072563Y-14333984D02*
X10091610Y-14333984D01*
X10091610Y-14333984D02*
X10110658Y-14343508D01*
X10110658Y-14343508D02*
X10120182Y-14353031D01*
X10120182Y-14353031D02*
X10129705Y-14372079D01*
X10129705Y-14372079D02*
X10139229Y-14410174D01*
X10139229Y-14410174D02*
X10139229Y-14457793D01*
X10139229Y-14457793D02*
X10129705Y-14495888D01*
X10129705Y-14495888D02*
X10120182Y-14514936D01*
X10120182Y-14514936D02*
X10110658Y-14524460D01*
X10110658Y-14524460D02*
X10091610Y-14533984D01*
X10091610Y-14533984D02*
X10072563Y-14533984D01*
X10072563Y-14533984D02*
X10053515Y-14524460D01*
X10053515Y-14524460D02*
X10043991Y-14514936D01*
X10043991Y-14514936D02*
X10034467Y-14495888D01*
X10034467Y-14495888D02*
X10024944Y-14457793D01*
X10024944Y-14457793D02*
X10024944Y-14410174D01*
X10024944Y-14410174D02*
X10034467Y-14372079D01*
X10034467Y-14372079D02*
X10043991Y-14353031D01*
X10043991Y-14353031D02*
X10053515Y-14343508D01*
X10053515Y-14343508D02*
X10072563Y-14333984D01*
X10215420Y-14353031D02*
X10224944Y-14343508D01*
X10224944Y-14343508D02*
X10243991Y-14333984D01*
X10243991Y-14333984D02*
X10291610Y-14333984D01*
X10291610Y-14333984D02*
X10310658Y-14343508D01*
X10310658Y-14343508D02*
X10320182Y-14353031D01*
X10320182Y-14353031D02*
X10329705Y-14372079D01*
X10329705Y-14372079D02*
X10329705Y-14391127D01*
X10329705Y-14391127D02*
X10320182Y-14419698D01*
X10320182Y-14419698D02*
X10205896Y-14533984D01*
X10205896Y-14533984D02*
X10329705Y-14533984D01*
X10415420Y-14533984D02*
X10415420Y-14400650D01*
X10415420Y-14419698D02*
X10424944Y-14410174D01*
X10424944Y-14410174D02*
X10443991Y-14400650D01*
X10443991Y-14400650D02*
X10472563Y-14400650D01*
X10472563Y-14400650D02*
X10491610Y-14410174D01*
X10491610Y-14410174D02*
X10501134Y-14429222D01*
X10501134Y-14429222D02*
X10501134Y-14533984D01*
X10501134Y-14429222D02*
X10510658Y-14410174D01*
X10510658Y-14410174D02*
X10529705Y-14400650D01*
X10529705Y-14400650D02*
X10558277Y-14400650D01*
X10558277Y-14400650D02*
X10577325Y-14410174D01*
X10577325Y-14410174D02*
X10586848Y-14429222D01*
X10586848Y-14429222D02*
X10586848Y-14533984D01*
X10682086Y-14533984D02*
X10682086Y-14400650D01*
X10682086Y-14419698D02*
X10691610Y-14410174D01*
X10691610Y-14410174D02*
X10710658Y-14400650D01*
X10710658Y-14400650D02*
X10739229Y-14400650D01*
X10739229Y-14400650D02*
X10758277Y-14410174D01*
X10758277Y-14410174D02*
X10767801Y-14429222D01*
X10767801Y-14429222D02*
X10767801Y-14533984D01*
X10767801Y-14429222D02*
X10777325Y-14410174D01*
X10777325Y-14410174D02*
X10796372Y-14400650D01*
X10796372Y-14400650D02*
X10824944Y-14400650D01*
X10824944Y-14400650D02*
X10843991Y-14410174D01*
X10843991Y-14410174D02*
X10853515Y-14429222D01*
X10853515Y-14429222D02*
X10853515Y-14533984D01*
X11243991Y-14324460D02*
X11072563Y-14581603D01*
X11501134Y-14333984D02*
X11520182Y-14333984D01*
X11520182Y-14333984D02*
X11539229Y-14343508D01*
X11539229Y-14343508D02*
X11548753Y-14353031D01*
X11548753Y-14353031D02*
X11558277Y-14372079D01*
X11558277Y-14372079D02*
X11567801Y-14410174D01*
X11567801Y-14410174D02*
X11567801Y-14457793D01*
X11567801Y-14457793D02*
X11558277Y-14495888D01*
X11558277Y-14495888D02*
X11548753Y-14514936D01*
X11548753Y-14514936D02*
X11539229Y-14524460D01*
X11539229Y-14524460D02*
X11520182Y-14533984D01*
X11520182Y-14533984D02*
X11501134Y-14533984D01*
X11501134Y-14533984D02*
X11482086Y-14524460D01*
X11482086Y-14524460D02*
X11472563Y-14514936D01*
X11472563Y-14514936D02*
X11463039Y-14495888D01*
X11463039Y-14495888D02*
X11453515Y-14457793D01*
X11453515Y-14457793D02*
X11453515Y-14410174D01*
X11453515Y-14410174D02*
X11463039Y-14372079D01*
X11463039Y-14372079D02*
X11472563Y-14353031D01*
X11472563Y-14353031D02*
X11482086Y-14343508D01*
X11482086Y-14343508D02*
X11501134Y-14333984D01*
X11653515Y-14514936D02*
X11663039Y-14524460D01*
X11663039Y-14524460D02*
X11653515Y-14533984D01*
X11653515Y-14533984D02*
X11643991Y-14524460D01*
X11643991Y-14524460D02*
X11653515Y-14514936D01*
X11653515Y-14514936D02*
X11653515Y-14533984D01*
X11786848Y-14333984D02*
X11805896Y-14333984D01*
X11805896Y-14333984D02*
X11824944Y-14343508D01*
X11824944Y-14343508D02*
X11834467Y-14353031D01*
X11834467Y-14353031D02*
X11843991Y-14372079D01*
X11843991Y-14372079D02*
X11853515Y-14410174D01*
X11853515Y-14410174D02*
X11853515Y-14457793D01*
X11853515Y-14457793D02*
X11843991Y-14495888D01*
X11843991Y-14495888D02*
X11834467Y-14514936D01*
X11834467Y-14514936D02*
X11824944Y-14524460D01*
X11824944Y-14524460D02*
X11805896Y-14533984D01*
X11805896Y-14533984D02*
X11786848Y-14533984D01*
X11786848Y-14533984D02*
X11767801Y-14524460D01*
X11767801Y-14524460D02*
X11758277Y-14514936D01*
X11758277Y-14514936D02*
X11748753Y-14495888D01*
X11748753Y-14495888D02*
X11739229Y-14457793D01*
X11739229Y-14457793D02*
X11739229Y-14410174D01*
X11739229Y-14410174D02*
X11748753Y-14372079D01*
X11748753Y-14372079D02*
X11758277Y-14353031D01*
X11758277Y-14353031D02*
X11767801Y-14343508D01*
X11767801Y-14343508D02*
X11786848Y-14333984D01*
X12024944Y-14333984D02*
X11986848Y-14333984D01*
X11986848Y-14333984D02*
X11967801Y-14343508D01*
X11967801Y-14343508D02*
X11958277Y-14353031D01*
X11958277Y-14353031D02*
X11939229Y-14381603D01*
X11939229Y-14381603D02*
X11929706Y-14419698D01*
X11929706Y-14419698D02*
X11929706Y-14495888D01*
X11929706Y-14495888D02*
X11939229Y-14514936D01*
X11939229Y-14514936D02*
X11948753Y-14524460D01*
X11948753Y-14524460D02*
X11967801Y-14533984D01*
X11967801Y-14533984D02*
X12005896Y-14533984D01*
X12005896Y-14533984D02*
X12024944Y-14524460D01*
X12024944Y-14524460D02*
X12034467Y-14514936D01*
X12034467Y-14514936D02*
X12043991Y-14495888D01*
X12043991Y-14495888D02*
X12043991Y-14448269D01*
X12043991Y-14448269D02*
X12034467Y-14429222D01*
X12034467Y-14429222D02*
X12024944Y-14419698D01*
X12024944Y-14419698D02*
X12005896Y-14410174D01*
X12005896Y-14410174D02*
X11967801Y-14410174D01*
X11967801Y-14410174D02*
X11948753Y-14419698D01*
X11948753Y-14419698D02*
X11939229Y-14429222D01*
X11939229Y-14429222D02*
X11929706Y-14448269D01*
X12110658Y-14333984D02*
X12243991Y-14333984D01*
X12243991Y-14333984D02*
X12158277Y-14533984D01*
X12358277Y-14333984D02*
X12377325Y-14333984D01*
X12377325Y-14333984D02*
X12396372Y-14343508D01*
X12396372Y-14343508D02*
X12405896Y-14353031D01*
X12405896Y-14353031D02*
X12415420Y-14372079D01*
X12415420Y-14372079D02*
X12424944Y-14410174D01*
X12424944Y-14410174D02*
X12424944Y-14457793D01*
X12424944Y-14457793D02*
X12415420Y-14495888D01*
X12415420Y-14495888D02*
X12405896Y-14514936D01*
X12405896Y-14514936D02*
X12396372Y-14524460D01*
X12396372Y-14524460D02*
X12377325Y-14533984D01*
X12377325Y-14533984D02*
X12358277Y-14533984D01*
X12358277Y-14533984D02*
X12339229Y-14524460D01*
X12339229Y-14524460D02*
X12329706Y-14514936D01*
X12329706Y-14514936D02*
X12320182Y-14495888D01*
X12320182Y-14495888D02*
X12310658Y-14457793D01*
X12310658Y-14457793D02*
X12310658Y-14410174D01*
X12310658Y-14410174D02*
X12320182Y-14372079D01*
X12320182Y-14372079D02*
X12329706Y-14353031D01*
X12329706Y-14353031D02*
X12339229Y-14343508D01*
X12339229Y-14343508D02*
X12358277Y-14333984D01*
X12501134Y-14333984D02*
X12501134Y-14372079D01*
X12577325Y-14333984D02*
X12577325Y-14372079D01*
X12872563Y-14610174D02*
X12863039Y-14600650D01*
X12863039Y-14600650D02*
X12843991Y-14572079D01*
X12843991Y-14572079D02*
X12834468Y-14553031D01*
X12834468Y-14553031D02*
X12824944Y-14524460D01*
X12824944Y-14524460D02*
X12815420Y-14476841D01*
X12815420Y-14476841D02*
X12815420Y-14438746D01*
X12815420Y-14438746D02*
X12824944Y-14391127D01*
X12824944Y-14391127D02*
X12834468Y-14362555D01*
X12834468Y-14362555D02*
X12843991Y-14343508D01*
X12843991Y-14343508D02*
X12863039Y-14314936D01*
X12863039Y-14314936D02*
X12872563Y-14305412D01*
X12939229Y-14353031D02*
X12948753Y-14343508D01*
X12948753Y-14343508D02*
X12967801Y-14333984D01*
X12967801Y-14333984D02*
X13015420Y-14333984D01*
X13015420Y-14333984D02*
X13034468Y-14343508D01*
X13034468Y-14343508D02*
X13043991Y-14353031D01*
X13043991Y-14353031D02*
X13053515Y-14372079D01*
X13053515Y-14372079D02*
X13053515Y-14391127D01*
X13053515Y-14391127D02*
X13043991Y-14419698D01*
X13043991Y-14419698D02*
X12929706Y-14533984D01*
X12929706Y-14533984D02*
X13053515Y-14533984D01*
X13224944Y-14400650D02*
X13224944Y-14533984D01*
X13177325Y-14324460D02*
X13129706Y-14467317D01*
X13129706Y-14467317D02*
X13253515Y-14467317D01*
X13482087Y-14533984D02*
X13482087Y-14333984D01*
X13567801Y-14533984D02*
X13567801Y-14429222D01*
X13567801Y-14429222D02*
X13558277Y-14410174D01*
X13558277Y-14410174D02*
X13539230Y-14400650D01*
X13539230Y-14400650D02*
X13510658Y-14400650D01*
X13510658Y-14400650D02*
X13491610Y-14410174D01*
X13491610Y-14410174D02*
X13482087Y-14419698D01*
X13691610Y-14533984D02*
X13672563Y-14524460D01*
X13672563Y-14524460D02*
X13663039Y-14514936D01*
X13663039Y-14514936D02*
X13653515Y-14495888D01*
X13653515Y-14495888D02*
X13653515Y-14438746D01*
X13653515Y-14438746D02*
X13663039Y-14419698D01*
X13663039Y-14419698D02*
X13672563Y-14410174D01*
X13672563Y-14410174D02*
X13691610Y-14400650D01*
X13691610Y-14400650D02*
X13720182Y-14400650D01*
X13720182Y-14400650D02*
X13739230Y-14410174D01*
X13739230Y-14410174D02*
X13748753Y-14419698D01*
X13748753Y-14419698D02*
X13758277Y-14438746D01*
X13758277Y-14438746D02*
X13758277Y-14495888D01*
X13758277Y-14495888D02*
X13748753Y-14514936D01*
X13748753Y-14514936D02*
X13739230Y-14524460D01*
X13739230Y-14524460D02*
X13720182Y-14533984D01*
X13720182Y-14533984D02*
X13691610Y-14533984D01*
X13872563Y-14533984D02*
X13853515Y-14524460D01*
X13853515Y-14524460D02*
X13843991Y-14505412D01*
X13843991Y-14505412D02*
X13843991Y-14333984D01*
X14024944Y-14524460D02*
X14005896Y-14533984D01*
X14005896Y-14533984D02*
X13967801Y-14533984D01*
X13967801Y-14533984D02*
X13948753Y-14524460D01*
X13948753Y-14524460D02*
X13939230Y-14505412D01*
X13939230Y-14505412D02*
X13939230Y-14429222D01*
X13939230Y-14429222D02*
X13948753Y-14410174D01*
X13948753Y-14410174D02*
X13967801Y-14400650D01*
X13967801Y-14400650D02*
X14005896Y-14400650D01*
X14005896Y-14400650D02*
X14024944Y-14410174D01*
X14024944Y-14410174D02*
X14034468Y-14429222D01*
X14034468Y-14429222D02*
X14034468Y-14448269D01*
X14034468Y-14448269D02*
X13939230Y-14467317D01*
X14110658Y-14524460D02*
X14129706Y-14533984D01*
X14129706Y-14533984D02*
X14167801Y-14533984D01*
X14167801Y-14533984D02*
X14186849Y-14524460D01*
X14186849Y-14524460D02*
X14196372Y-14505412D01*
X14196372Y-14505412D02*
X14196372Y-14495888D01*
X14196372Y-14495888D02*
X14186849Y-14476841D01*
X14186849Y-14476841D02*
X14167801Y-14467317D01*
X14167801Y-14467317D02*
X14139230Y-14467317D01*
X14139230Y-14467317D02*
X14120182Y-14457793D01*
X14120182Y-14457793D02*
X14110658Y-14438746D01*
X14110658Y-14438746D02*
X14110658Y-14429222D01*
X14110658Y-14429222D02*
X14120182Y-14410174D01*
X14120182Y-14410174D02*
X14139230Y-14400650D01*
X14139230Y-14400650D02*
X14167801Y-14400650D01*
X14167801Y-14400650D02*
X14186849Y-14410174D01*
X14263039Y-14610174D02*
X14272563Y-14600650D01*
X14272563Y-14600650D02*
X14291611Y-14572079D01*
X14291611Y-14572079D02*
X14301134Y-14553031D01*
X14301134Y-14553031D02*
X14310658Y-14524460D01*
X14310658Y-14524460D02*
X14320182Y-14476841D01*
X14320182Y-14476841D02*
X14320182Y-14438746D01*
X14320182Y-14438746D02*
X14310658Y-14391127D01*
X14310658Y-14391127D02*
X14301134Y-14362555D01*
X14301134Y-14362555D02*
X14291611Y-14343508D01*
X14291611Y-14343508D02*
X14272563Y-14314936D01*
X14272563Y-14314936D02*
X14263039Y-14305412D01*
X14624944Y-14610174D02*
X14615420Y-14600650D01*
X14615420Y-14600650D02*
X14596372Y-14572079D01*
X14596372Y-14572079D02*
X14586849Y-14553031D01*
X14586849Y-14553031D02*
X14577325Y-14524460D01*
X14577325Y-14524460D02*
X14567801Y-14476841D01*
X14567801Y-14476841D02*
X14567801Y-14438746D01*
X14567801Y-14438746D02*
X14577325Y-14391127D01*
X14577325Y-14391127D02*
X14586849Y-14362555D01*
X14586849Y-14362555D02*
X14596372Y-14343508D01*
X14596372Y-14343508D02*
X14615420Y-14314936D01*
X14615420Y-14314936D02*
X14624944Y-14305412D01*
X14701134Y-14400650D02*
X14701134Y-14533984D01*
X14701134Y-14419698D02*
X14710658Y-14410174D01*
X14710658Y-14410174D02*
X14729706Y-14400650D01*
X14729706Y-14400650D02*
X14758277Y-14400650D01*
X14758277Y-14400650D02*
X14777325Y-14410174D01*
X14777325Y-14410174D02*
X14786849Y-14429222D01*
X14786849Y-14429222D02*
X14786849Y-14533984D01*
X14910658Y-14533984D02*
X14891611Y-14524460D01*
X14891611Y-14524460D02*
X14882087Y-14514936D01*
X14882087Y-14514936D02*
X14872563Y-14495888D01*
X14872563Y-14495888D02*
X14872563Y-14438746D01*
X14872563Y-14438746D02*
X14882087Y-14419698D01*
X14882087Y-14419698D02*
X14891611Y-14410174D01*
X14891611Y-14410174D02*
X14910658Y-14400650D01*
X14910658Y-14400650D02*
X14939230Y-14400650D01*
X14939230Y-14400650D02*
X14958277Y-14410174D01*
X14958277Y-14410174D02*
X14967801Y-14419698D01*
X14967801Y-14419698D02*
X14977325Y-14438746D01*
X14977325Y-14438746D02*
X14977325Y-14495888D01*
X14977325Y-14495888D02*
X14967801Y-14514936D01*
X14967801Y-14514936D02*
X14958277Y-14524460D01*
X14958277Y-14524460D02*
X14939230Y-14533984D01*
X14939230Y-14533984D02*
X14910658Y-14533984D01*
X15034468Y-14400650D02*
X15110658Y-14400650D01*
X15063039Y-14333984D02*
X15063039Y-14505412D01*
X15063039Y-14505412D02*
X15072563Y-14524460D01*
X15072563Y-14524460D02*
X15091611Y-14533984D01*
X15091611Y-14533984D02*
X15110658Y-14533984D01*
X15329706Y-14400650D02*
X15329706Y-14600650D01*
X15329706Y-14410174D02*
X15348753Y-14400650D01*
X15348753Y-14400650D02*
X15386849Y-14400650D01*
X15386849Y-14400650D02*
X15405896Y-14410174D01*
X15405896Y-14410174D02*
X15415420Y-14419698D01*
X15415420Y-14419698D02*
X15424944Y-14438746D01*
X15424944Y-14438746D02*
X15424944Y-14495888D01*
X15424944Y-14495888D02*
X15415420Y-14514936D01*
X15415420Y-14514936D02*
X15405896Y-14524460D01*
X15405896Y-14524460D02*
X15386849Y-14533984D01*
X15386849Y-14533984D02*
X15348753Y-14533984D01*
X15348753Y-14533984D02*
X15329706Y-14524460D01*
X15539230Y-14533984D02*
X15520182Y-14524460D01*
X15520182Y-14524460D02*
X15510658Y-14505412D01*
X15510658Y-14505412D02*
X15510658Y-14333984D01*
X15701134Y-14533984D02*
X15701134Y-14429222D01*
X15701134Y-14429222D02*
X15691611Y-14410174D01*
X15691611Y-14410174D02*
X15672563Y-14400650D01*
X15672563Y-14400650D02*
X15634468Y-14400650D01*
X15634468Y-14400650D02*
X15615420Y-14410174D01*
X15701134Y-14524460D02*
X15682087Y-14533984D01*
X15682087Y-14533984D02*
X15634468Y-14533984D01*
X15634468Y-14533984D02*
X15615420Y-14524460D01*
X15615420Y-14524460D02*
X15605896Y-14505412D01*
X15605896Y-14505412D02*
X15605896Y-14486365D01*
X15605896Y-14486365D02*
X15615420Y-14467317D01*
X15615420Y-14467317D02*
X15634468Y-14457793D01*
X15634468Y-14457793D02*
X15682087Y-14457793D01*
X15682087Y-14457793D02*
X15701134Y-14448269D01*
X15767801Y-14400650D02*
X15843992Y-14400650D01*
X15796373Y-14333984D02*
X15796373Y-14505412D01*
X15796373Y-14505412D02*
X15805896Y-14524460D01*
X15805896Y-14524460D02*
X15824944Y-14533984D01*
X15824944Y-14533984D02*
X15843992Y-14533984D01*
X15986849Y-14524460D02*
X15967801Y-14533984D01*
X15967801Y-14533984D02*
X15929706Y-14533984D01*
X15929706Y-14533984D02*
X15910658Y-14524460D01*
X15910658Y-14524460D02*
X15901134Y-14505412D01*
X15901134Y-14505412D02*
X15901134Y-14429222D01*
X15901134Y-14429222D02*
X15910658Y-14410174D01*
X15910658Y-14410174D02*
X15929706Y-14400650D01*
X15929706Y-14400650D02*
X15967801Y-14400650D01*
X15967801Y-14400650D02*
X15986849Y-14410174D01*
X15986849Y-14410174D02*
X15996373Y-14429222D01*
X15996373Y-14429222D02*
X15996373Y-14448269D01*
X15996373Y-14448269D02*
X15901134Y-14467317D01*
X16167801Y-14533984D02*
X16167801Y-14333984D01*
X16167801Y-14524460D02*
X16148754Y-14533984D01*
X16148754Y-14533984D02*
X16110658Y-14533984D01*
X16110658Y-14533984D02*
X16091611Y-14524460D01*
X16091611Y-14524460D02*
X16082087Y-14514936D01*
X16082087Y-14514936D02*
X16072563Y-14495888D01*
X16072563Y-14495888D02*
X16072563Y-14438746D01*
X16072563Y-14438746D02*
X16082087Y-14419698D01*
X16082087Y-14419698D02*
X16091611Y-14410174D01*
X16091611Y-14410174D02*
X16110658Y-14400650D01*
X16110658Y-14400650D02*
X16148754Y-14400650D01*
X16148754Y-14400650D02*
X16167801Y-14410174D01*
X16243992Y-14610174D02*
X16253515Y-14600650D01*
X16253515Y-14600650D02*
X16272563Y-14572079D01*
X16272563Y-14572079D02*
X16282087Y-14553031D01*
X16282087Y-14553031D02*
X16291611Y-14524460D01*
X16291611Y-14524460D02*
X16301134Y-14476841D01*
X16301134Y-14476841D02*
X16301134Y-14438746D01*
X16301134Y-14438746D02*
X16291611Y-14391127D01*
X16291611Y-14391127D02*
X16282087Y-14362555D01*
X16282087Y-14362555D02*
X16272563Y-14343508D01*
X16272563Y-14343508D02*
X16253515Y-14314936D01*
X16253515Y-14314936D02*
X16243992Y-14305412D01*
X9297500Y-14732680D02*
G75*
G02*
X9097500Y-14732680I-100000J0D01*
G01*
X9097500Y-14732680D02*
G75*
G02*
X9297500Y-14732680I100000J0D01*
G01*
X9539229Y-14624164D02*
X9663039Y-14624164D01*
X9663039Y-14624164D02*
X9596372Y-14700354D01*
X9596372Y-14700354D02*
X9624944Y-14700354D01*
X9624944Y-14700354D02*
X9643991Y-14709878D01*
X9643991Y-14709878D02*
X9653515Y-14719402D01*
X9653515Y-14719402D02*
X9663039Y-14738449D01*
X9663039Y-14738449D02*
X9663039Y-14786068D01*
X9663039Y-14786068D02*
X9653515Y-14805116D01*
X9653515Y-14805116D02*
X9643991Y-14814640D01*
X9643991Y-14814640D02*
X9624944Y-14824164D01*
X9624944Y-14824164D02*
X9567801Y-14824164D01*
X9567801Y-14824164D02*
X9548753Y-14814640D01*
X9548753Y-14814640D02*
X9539229Y-14805116D01*
X9748753Y-14805116D02*
X9758277Y-14814640D01*
X9758277Y-14814640D02*
X9748753Y-14824164D01*
X9748753Y-14824164D02*
X9739229Y-14814640D01*
X9739229Y-14814640D02*
X9748753Y-14805116D01*
X9748753Y-14805116D02*
X9748753Y-14824164D01*
X9853515Y-14824164D02*
X9891610Y-14824164D01*
X9891610Y-14824164D02*
X9910658Y-14814640D01*
X9910658Y-14814640D02*
X9920182Y-14805116D01*
X9920182Y-14805116D02*
X9939229Y-14776545D01*
X9939229Y-14776545D02*
X9948753Y-14738449D01*
X9948753Y-14738449D02*
X9948753Y-14662259D01*
X9948753Y-14662259D02*
X9939229Y-14643211D01*
X9939229Y-14643211D02*
X9929705Y-14633688D01*
X9929705Y-14633688D02*
X9910658Y-14624164D01*
X9910658Y-14624164D02*
X9872563Y-14624164D01*
X9872563Y-14624164D02*
X9853515Y-14633688D01*
X9853515Y-14633688D02*
X9843991Y-14643211D01*
X9843991Y-14643211D02*
X9834467Y-14662259D01*
X9834467Y-14662259D02*
X9834467Y-14709878D01*
X9834467Y-14709878D02*
X9843991Y-14728926D01*
X9843991Y-14728926D02*
X9853515Y-14738449D01*
X9853515Y-14738449D02*
X9872563Y-14747973D01*
X9872563Y-14747973D02*
X9910658Y-14747973D01*
X9910658Y-14747973D02*
X9929705Y-14738449D01*
X9929705Y-14738449D02*
X9939229Y-14728926D01*
X9939229Y-14728926D02*
X9948753Y-14709878D01*
X10063039Y-14709878D02*
X10043991Y-14700354D01*
X10043991Y-14700354D02*
X10034467Y-14690830D01*
X10034467Y-14690830D02*
X10024944Y-14671783D01*
X10024944Y-14671783D02*
X10024944Y-14662259D01*
X10024944Y-14662259D02*
X10034467Y-14643211D01*
X10034467Y-14643211D02*
X10043991Y-14633688D01*
X10043991Y-14633688D02*
X10063039Y-14624164D01*
X10063039Y-14624164D02*
X10101134Y-14624164D01*
X10101134Y-14624164D02*
X10120182Y-14633688D01*
X10120182Y-14633688D02*
X10129705Y-14643211D01*
X10129705Y-14643211D02*
X10139229Y-14662259D01*
X10139229Y-14662259D02*
X10139229Y-14671783D01*
X10139229Y-14671783D02*
X10129705Y-14690830D01*
X10129705Y-14690830D02*
X10120182Y-14700354D01*
X10120182Y-14700354D02*
X10101134Y-14709878D01*
X10101134Y-14709878D02*
X10063039Y-14709878D01*
X10063039Y-14709878D02*
X10043991Y-14719402D01*
X10043991Y-14719402D02*
X10034467Y-14728926D01*
X10034467Y-14728926D02*
X10024944Y-14747973D01*
X10024944Y-14747973D02*
X10024944Y-14786068D01*
X10024944Y-14786068D02*
X10034467Y-14805116D01*
X10034467Y-14805116D02*
X10043991Y-14814640D01*
X10043991Y-14814640D02*
X10063039Y-14824164D01*
X10063039Y-14824164D02*
X10101134Y-14824164D01*
X10101134Y-14824164D02*
X10120182Y-14814640D01*
X10120182Y-14814640D02*
X10129705Y-14805116D01*
X10129705Y-14805116D02*
X10139229Y-14786068D01*
X10139229Y-14786068D02*
X10139229Y-14747973D01*
X10139229Y-14747973D02*
X10129705Y-14728926D01*
X10129705Y-14728926D02*
X10120182Y-14719402D01*
X10120182Y-14719402D02*
X10101134Y-14709878D01*
X10253515Y-14709878D02*
X10234467Y-14700354D01*
X10234467Y-14700354D02*
X10224944Y-14690830D01*
X10224944Y-14690830D02*
X10215420Y-14671783D01*
X10215420Y-14671783D02*
X10215420Y-14662259D01*
X10215420Y-14662259D02*
X10224944Y-14643211D01*
X10224944Y-14643211D02*
X10234467Y-14633688D01*
X10234467Y-14633688D02*
X10253515Y-14624164D01*
X10253515Y-14624164D02*
X10291610Y-14624164D01*
X10291610Y-14624164D02*
X10310658Y-14633688D01*
X10310658Y-14633688D02*
X10320182Y-14643211D01*
X10320182Y-14643211D02*
X10329705Y-14662259D01*
X10329705Y-14662259D02*
X10329705Y-14671783D01*
X10329705Y-14671783D02*
X10320182Y-14690830D01*
X10320182Y-14690830D02*
X10310658Y-14700354D01*
X10310658Y-14700354D02*
X10291610Y-14709878D01*
X10291610Y-14709878D02*
X10253515Y-14709878D01*
X10253515Y-14709878D02*
X10234467Y-14719402D01*
X10234467Y-14719402D02*
X10224944Y-14728926D01*
X10224944Y-14728926D02*
X10215420Y-14747973D01*
X10215420Y-14747973D02*
X10215420Y-14786068D01*
X10215420Y-14786068D02*
X10224944Y-14805116D01*
X10224944Y-14805116D02*
X10234467Y-14814640D01*
X10234467Y-14814640D02*
X10253515Y-14824164D01*
X10253515Y-14824164D02*
X10291610Y-14824164D01*
X10291610Y-14824164D02*
X10310658Y-14814640D01*
X10310658Y-14814640D02*
X10320182Y-14805116D01*
X10320182Y-14805116D02*
X10329705Y-14786068D01*
X10329705Y-14786068D02*
X10329705Y-14747973D01*
X10329705Y-14747973D02*
X10320182Y-14728926D01*
X10320182Y-14728926D02*
X10310658Y-14719402D01*
X10310658Y-14719402D02*
X10291610Y-14709878D01*
X10415420Y-14824164D02*
X10415420Y-14690830D01*
X10415420Y-14709878D02*
X10424944Y-14700354D01*
X10424944Y-14700354D02*
X10443991Y-14690830D01*
X10443991Y-14690830D02*
X10472563Y-14690830D01*
X10472563Y-14690830D02*
X10491610Y-14700354D01*
X10491610Y-14700354D02*
X10501134Y-14719402D01*
X10501134Y-14719402D02*
X10501134Y-14824164D01*
X10501134Y-14719402D02*
X10510658Y-14700354D01*
X10510658Y-14700354D02*
X10529705Y-14690830D01*
X10529705Y-14690830D02*
X10558277Y-14690830D01*
X10558277Y-14690830D02*
X10577325Y-14700354D01*
X10577325Y-14700354D02*
X10586848Y-14719402D01*
X10586848Y-14719402D02*
X10586848Y-14824164D01*
X10682086Y-14824164D02*
X10682086Y-14690830D01*
X10682086Y-14709878D02*
X10691610Y-14700354D01*
X10691610Y-14700354D02*
X10710658Y-14690830D01*
X10710658Y-14690830D02*
X10739229Y-14690830D01*
X10739229Y-14690830D02*
X10758277Y-14700354D01*
X10758277Y-14700354D02*
X10767801Y-14719402D01*
X10767801Y-14719402D02*
X10767801Y-14824164D01*
X10767801Y-14719402D02*
X10777325Y-14700354D01*
X10777325Y-14700354D02*
X10796372Y-14690830D01*
X10796372Y-14690830D02*
X10824944Y-14690830D01*
X10824944Y-14690830D02*
X10843991Y-14700354D01*
X10843991Y-14700354D02*
X10853515Y-14719402D01*
X10853515Y-14719402D02*
X10853515Y-14824164D01*
X11243991Y-14614640D02*
X11072563Y-14871783D01*
X11501134Y-14624164D02*
X11520182Y-14624164D01*
X11520182Y-14624164D02*
X11539229Y-14633688D01*
X11539229Y-14633688D02*
X11548753Y-14643211D01*
X11548753Y-14643211D02*
X11558277Y-14662259D01*
X11558277Y-14662259D02*
X11567801Y-14700354D01*
X11567801Y-14700354D02*
X11567801Y-14747973D01*
X11567801Y-14747973D02*
X11558277Y-14786068D01*
X11558277Y-14786068D02*
X11548753Y-14805116D01*
X11548753Y-14805116D02*
X11539229Y-14814640D01*
X11539229Y-14814640D02*
X11520182Y-14824164D01*
X11520182Y-14824164D02*
X11501134Y-14824164D01*
X11501134Y-14824164D02*
X11482086Y-14814640D01*
X11482086Y-14814640D02*
X11472563Y-14805116D01*
X11472563Y-14805116D02*
X11463039Y-14786068D01*
X11463039Y-14786068D02*
X11453515Y-14747973D01*
X11453515Y-14747973D02*
X11453515Y-14700354D01*
X11453515Y-14700354D02*
X11463039Y-14662259D01*
X11463039Y-14662259D02*
X11472563Y-14643211D01*
X11472563Y-14643211D02*
X11482086Y-14633688D01*
X11482086Y-14633688D02*
X11501134Y-14624164D01*
X11653515Y-14805116D02*
X11663039Y-14814640D01*
X11663039Y-14814640D02*
X11653515Y-14824164D01*
X11653515Y-14824164D02*
X11643991Y-14814640D01*
X11643991Y-14814640D02*
X11653515Y-14805116D01*
X11653515Y-14805116D02*
X11653515Y-14824164D01*
X11853515Y-14824164D02*
X11739229Y-14824164D01*
X11796372Y-14824164D02*
X11796372Y-14624164D01*
X11796372Y-14624164D02*
X11777325Y-14652735D01*
X11777325Y-14652735D02*
X11758277Y-14671783D01*
X11758277Y-14671783D02*
X11739229Y-14681307D01*
X12034467Y-14624164D02*
X11939229Y-14624164D01*
X11939229Y-14624164D02*
X11929706Y-14719402D01*
X11929706Y-14719402D02*
X11939229Y-14709878D01*
X11939229Y-14709878D02*
X11958277Y-14700354D01*
X11958277Y-14700354D02*
X12005896Y-14700354D01*
X12005896Y-14700354D02*
X12024944Y-14709878D01*
X12024944Y-14709878D02*
X12034467Y-14719402D01*
X12034467Y-14719402D02*
X12043991Y-14738449D01*
X12043991Y-14738449D02*
X12043991Y-14786068D01*
X12043991Y-14786068D02*
X12034467Y-14805116D01*
X12034467Y-14805116D02*
X12024944Y-14814640D01*
X12024944Y-14814640D02*
X12005896Y-14824164D01*
X12005896Y-14824164D02*
X11958277Y-14824164D01*
X11958277Y-14824164D02*
X11939229Y-14814640D01*
X11939229Y-14814640D02*
X11929706Y-14805116D01*
X12110658Y-14624164D02*
X12243991Y-14624164D01*
X12243991Y-14624164D02*
X12158277Y-14824164D01*
X12358277Y-14624164D02*
X12377325Y-14624164D01*
X12377325Y-14624164D02*
X12396372Y-14633688D01*
X12396372Y-14633688D02*
X12405896Y-14643211D01*
X12405896Y-14643211D02*
X12415420Y-14662259D01*
X12415420Y-14662259D02*
X12424944Y-14700354D01*
X12424944Y-14700354D02*
X12424944Y-14747973D01*
X12424944Y-14747973D02*
X12415420Y-14786068D01*
X12415420Y-14786068D02*
X12405896Y-14805116D01*
X12405896Y-14805116D02*
X12396372Y-14814640D01*
X12396372Y-14814640D02*
X12377325Y-14824164D01*
X12377325Y-14824164D02*
X12358277Y-14824164D01*
X12358277Y-14824164D02*
X12339229Y-14814640D01*
X12339229Y-14814640D02*
X12329706Y-14805116D01*
X12329706Y-14805116D02*
X12320182Y-14786068D01*
X12320182Y-14786068D02*
X12310658Y-14747973D01*
X12310658Y-14747973D02*
X12310658Y-14700354D01*
X12310658Y-14700354D02*
X12320182Y-14662259D01*
X12320182Y-14662259D02*
X12329706Y-14643211D01*
X12329706Y-14643211D02*
X12339229Y-14633688D01*
X12339229Y-14633688D02*
X12358277Y-14624164D01*
X12501134Y-14624164D02*
X12501134Y-14662259D01*
X12577325Y-14624164D02*
X12577325Y-14662259D01*
X12872563Y-14900354D02*
X12863039Y-14890830D01*
X12863039Y-14890830D02*
X12843991Y-14862259D01*
X12843991Y-14862259D02*
X12834468Y-14843211D01*
X12834468Y-14843211D02*
X12824944Y-14814640D01*
X12824944Y-14814640D02*
X12815420Y-14767021D01*
X12815420Y-14767021D02*
X12815420Y-14728926D01*
X12815420Y-14728926D02*
X12824944Y-14681307D01*
X12824944Y-14681307D02*
X12834468Y-14652735D01*
X12834468Y-14652735D02*
X12843991Y-14633688D01*
X12843991Y-14633688D02*
X12863039Y-14605116D01*
X12863039Y-14605116D02*
X12872563Y-14595592D01*
X13053515Y-14824164D02*
X12939229Y-14824164D01*
X12996372Y-14824164D02*
X12996372Y-14624164D01*
X12996372Y-14624164D02*
X12977325Y-14652735D01*
X12977325Y-14652735D02*
X12958277Y-14671783D01*
X12958277Y-14671783D02*
X12939229Y-14681307D01*
X13129706Y-14643211D02*
X13139229Y-14633688D01*
X13139229Y-14633688D02*
X13158277Y-14624164D01*
X13158277Y-14624164D02*
X13205896Y-14624164D01*
X13205896Y-14624164D02*
X13224944Y-14633688D01*
X13224944Y-14633688D02*
X13234468Y-14643211D01*
X13234468Y-14643211D02*
X13243991Y-14662259D01*
X13243991Y-14662259D02*
X13243991Y-14681307D01*
X13243991Y-14681307D02*
X13234468Y-14709878D01*
X13234468Y-14709878D02*
X13120182Y-14824164D01*
X13120182Y-14824164D02*
X13243991Y-14824164D01*
X13482087Y-14824164D02*
X13482087Y-14624164D01*
X13567801Y-14824164D02*
X13567801Y-14719402D01*
X13567801Y-14719402D02*
X13558277Y-14700354D01*
X13558277Y-14700354D02*
X13539230Y-14690830D01*
X13539230Y-14690830D02*
X13510658Y-14690830D01*
X13510658Y-14690830D02*
X13491610Y-14700354D01*
X13491610Y-14700354D02*
X13482087Y-14709878D01*
X13691610Y-14824164D02*
X13672563Y-14814640D01*
X13672563Y-14814640D02*
X13663039Y-14805116D01*
X13663039Y-14805116D02*
X13653515Y-14786068D01*
X13653515Y-14786068D02*
X13653515Y-14728926D01*
X13653515Y-14728926D02*
X13663039Y-14709878D01*
X13663039Y-14709878D02*
X13672563Y-14700354D01*
X13672563Y-14700354D02*
X13691610Y-14690830D01*
X13691610Y-14690830D02*
X13720182Y-14690830D01*
X13720182Y-14690830D02*
X13739230Y-14700354D01*
X13739230Y-14700354D02*
X13748753Y-14709878D01*
X13748753Y-14709878D02*
X13758277Y-14728926D01*
X13758277Y-14728926D02*
X13758277Y-14786068D01*
X13758277Y-14786068D02*
X13748753Y-14805116D01*
X13748753Y-14805116D02*
X13739230Y-14814640D01*
X13739230Y-14814640D02*
X13720182Y-14824164D01*
X13720182Y-14824164D02*
X13691610Y-14824164D01*
X13872563Y-14824164D02*
X13853515Y-14814640D01*
X13853515Y-14814640D02*
X13843991Y-14795592D01*
X13843991Y-14795592D02*
X13843991Y-14624164D01*
X14024944Y-14814640D02*
X14005896Y-14824164D01*
X14005896Y-14824164D02*
X13967801Y-14824164D01*
X13967801Y-14824164D02*
X13948753Y-14814640D01*
X13948753Y-14814640D02*
X13939230Y-14795592D01*
X13939230Y-14795592D02*
X13939230Y-14719402D01*
X13939230Y-14719402D02*
X13948753Y-14700354D01*
X13948753Y-14700354D02*
X13967801Y-14690830D01*
X13967801Y-14690830D02*
X14005896Y-14690830D01*
X14005896Y-14690830D02*
X14024944Y-14700354D01*
X14024944Y-14700354D02*
X14034468Y-14719402D01*
X14034468Y-14719402D02*
X14034468Y-14738449D01*
X14034468Y-14738449D02*
X13939230Y-14757497D01*
X14110658Y-14814640D02*
X14129706Y-14824164D01*
X14129706Y-14824164D02*
X14167801Y-14824164D01*
X14167801Y-14824164D02*
X14186849Y-14814640D01*
X14186849Y-14814640D02*
X14196372Y-14795592D01*
X14196372Y-14795592D02*
X14196372Y-14786068D01*
X14196372Y-14786068D02*
X14186849Y-14767021D01*
X14186849Y-14767021D02*
X14167801Y-14757497D01*
X14167801Y-14757497D02*
X14139230Y-14757497D01*
X14139230Y-14757497D02*
X14120182Y-14747973D01*
X14120182Y-14747973D02*
X14110658Y-14728926D01*
X14110658Y-14728926D02*
X14110658Y-14719402D01*
X14110658Y-14719402D02*
X14120182Y-14700354D01*
X14120182Y-14700354D02*
X14139230Y-14690830D01*
X14139230Y-14690830D02*
X14167801Y-14690830D01*
X14167801Y-14690830D02*
X14186849Y-14700354D01*
X14263039Y-14900354D02*
X14272563Y-14890830D01*
X14272563Y-14890830D02*
X14291611Y-14862259D01*
X14291611Y-14862259D02*
X14301134Y-14843211D01*
X14301134Y-14843211D02*
X14310658Y-14814640D01*
X14310658Y-14814640D02*
X14320182Y-14767021D01*
X14320182Y-14767021D02*
X14320182Y-14728926D01*
X14320182Y-14728926D02*
X14310658Y-14681307D01*
X14310658Y-14681307D02*
X14301134Y-14652735D01*
X14301134Y-14652735D02*
X14291611Y-14633688D01*
X14291611Y-14633688D02*
X14272563Y-14605116D01*
X14272563Y-14605116D02*
X14263039Y-14595592D01*
X14624944Y-14900354D02*
X14615420Y-14890830D01*
X14615420Y-14890830D02*
X14596372Y-14862259D01*
X14596372Y-14862259D02*
X14586849Y-14843211D01*
X14586849Y-14843211D02*
X14577325Y-14814640D01*
X14577325Y-14814640D02*
X14567801Y-14767021D01*
X14567801Y-14767021D02*
X14567801Y-14728926D01*
X14567801Y-14728926D02*
X14577325Y-14681307D01*
X14577325Y-14681307D02*
X14586849Y-14652735D01*
X14586849Y-14652735D02*
X14596372Y-14633688D01*
X14596372Y-14633688D02*
X14615420Y-14605116D01*
X14615420Y-14605116D02*
X14624944Y-14595592D01*
X14701134Y-14690830D02*
X14701134Y-14824164D01*
X14701134Y-14709878D02*
X14710658Y-14700354D01*
X14710658Y-14700354D02*
X14729706Y-14690830D01*
X14729706Y-14690830D02*
X14758277Y-14690830D01*
X14758277Y-14690830D02*
X14777325Y-14700354D01*
X14777325Y-14700354D02*
X14786849Y-14719402D01*
X14786849Y-14719402D02*
X14786849Y-14824164D01*
X14910658Y-14824164D02*
X14891611Y-14814640D01*
X14891611Y-14814640D02*
X14882087Y-14805116D01*
X14882087Y-14805116D02*
X14872563Y-14786068D01*
X14872563Y-14786068D02*
X14872563Y-14728926D01*
X14872563Y-14728926D02*
X14882087Y-14709878D01*
X14882087Y-14709878D02*
X14891611Y-14700354D01*
X14891611Y-14700354D02*
X14910658Y-14690830D01*
X14910658Y-14690830D02*
X14939230Y-14690830D01*
X14939230Y-14690830D02*
X14958277Y-14700354D01*
X14958277Y-14700354D02*
X14967801Y-14709878D01*
X14967801Y-14709878D02*
X14977325Y-14728926D01*
X14977325Y-14728926D02*
X14977325Y-14786068D01*
X14977325Y-14786068D02*
X14967801Y-14805116D01*
X14967801Y-14805116D02*
X14958277Y-14814640D01*
X14958277Y-14814640D02*
X14939230Y-14824164D01*
X14939230Y-14824164D02*
X14910658Y-14824164D01*
X15034468Y-14690830D02*
X15110658Y-14690830D01*
X15063039Y-14624164D02*
X15063039Y-14795592D01*
X15063039Y-14795592D02*
X15072563Y-14814640D01*
X15072563Y-14814640D02*
X15091611Y-14824164D01*
X15091611Y-14824164D02*
X15110658Y-14824164D01*
X15329706Y-14690830D02*
X15329706Y-14890830D01*
X15329706Y-14700354D02*
X15348753Y-14690830D01*
X15348753Y-14690830D02*
X15386849Y-14690830D01*
X15386849Y-14690830D02*
X15405896Y-14700354D01*
X15405896Y-14700354D02*
X15415420Y-14709878D01*
X15415420Y-14709878D02*
X15424944Y-14728926D01*
X15424944Y-14728926D02*
X15424944Y-14786068D01*
X15424944Y-14786068D02*
X15415420Y-14805116D01*
X15415420Y-14805116D02*
X15405896Y-14814640D01*
X15405896Y-14814640D02*
X15386849Y-14824164D01*
X15386849Y-14824164D02*
X15348753Y-14824164D01*
X15348753Y-14824164D02*
X15329706Y-14814640D01*
X15539230Y-14824164D02*
X15520182Y-14814640D01*
X15520182Y-14814640D02*
X15510658Y-14795592D01*
X15510658Y-14795592D02*
X15510658Y-14624164D01*
X15701134Y-14824164D02*
X15701134Y-14719402D01*
X15701134Y-14719402D02*
X15691611Y-14700354D01*
X15691611Y-14700354D02*
X15672563Y-14690830D01*
X15672563Y-14690830D02*
X15634468Y-14690830D01*
X15634468Y-14690830D02*
X15615420Y-14700354D01*
X15701134Y-14814640D02*
X15682087Y-14824164D01*
X15682087Y-14824164D02*
X15634468Y-14824164D01*
X15634468Y-14824164D02*
X15615420Y-14814640D01*
X15615420Y-14814640D02*
X15605896Y-14795592D01*
X15605896Y-14795592D02*
X15605896Y-14776545D01*
X15605896Y-14776545D02*
X15615420Y-14757497D01*
X15615420Y-14757497D02*
X15634468Y-14747973D01*
X15634468Y-14747973D02*
X15682087Y-14747973D01*
X15682087Y-14747973D02*
X15701134Y-14738449D01*
X15767801Y-14690830D02*
X15843992Y-14690830D01*
X15796373Y-14624164D02*
X15796373Y-14795592D01*
X15796373Y-14795592D02*
X15805896Y-14814640D01*
X15805896Y-14814640D02*
X15824944Y-14824164D01*
X15824944Y-14824164D02*
X15843992Y-14824164D01*
X15986849Y-14814640D02*
X15967801Y-14824164D01*
X15967801Y-14824164D02*
X15929706Y-14824164D01*
X15929706Y-14824164D02*
X15910658Y-14814640D01*
X15910658Y-14814640D02*
X15901134Y-14795592D01*
X15901134Y-14795592D02*
X15901134Y-14719402D01*
X15901134Y-14719402D02*
X15910658Y-14700354D01*
X15910658Y-14700354D02*
X15929706Y-14690830D01*
X15929706Y-14690830D02*
X15967801Y-14690830D01*
X15967801Y-14690830D02*
X15986849Y-14700354D01*
X15986849Y-14700354D02*
X15996373Y-14719402D01*
X15996373Y-14719402D02*
X15996373Y-14738449D01*
X15996373Y-14738449D02*
X15901134Y-14757497D01*
X16167801Y-14824164D02*
X16167801Y-14624164D01*
X16167801Y-14814640D02*
X16148754Y-14824164D01*
X16148754Y-14824164D02*
X16110658Y-14824164D01*
X16110658Y-14824164D02*
X16091611Y-14814640D01*
X16091611Y-14814640D02*
X16082087Y-14805116D01*
X16082087Y-14805116D02*
X16072563Y-14786068D01*
X16072563Y-14786068D02*
X16072563Y-14728926D01*
X16072563Y-14728926D02*
X16082087Y-14709878D01*
X16082087Y-14709878D02*
X16091611Y-14700354D01*
X16091611Y-14700354D02*
X16110658Y-14690830D01*
X16110658Y-14690830D02*
X16148754Y-14690830D01*
X16148754Y-14690830D02*
X16167801Y-14700354D01*
X16243992Y-14900354D02*
X16253515Y-14890830D01*
X16253515Y-14890830D02*
X16272563Y-14862259D01*
X16272563Y-14862259D02*
X16282087Y-14843211D01*
X16282087Y-14843211D02*
X16291611Y-14814640D01*
X16291611Y-14814640D02*
X16301134Y-14767021D01*
X16301134Y-14767021D02*
X16301134Y-14728926D01*
X16301134Y-14728926D02*
X16291611Y-14681307D01*
X16291611Y-14681307D02*
X16282087Y-14652735D01*
X16282087Y-14652735D02*
X16272563Y-14633688D01*
X16272563Y-14633688D02*
X16253515Y-14605116D01*
X16253515Y-14605116D02*
X16243992Y-14595592D01*
M02*
