%TF.GenerationSoftware,KiCad,Pcbnew,8.0.0*%
%TF.CreationDate,2024-03-18T12:56:35-04:00*%
%TF.ProjectId,mmp,6d6d702e-6b69-4636-9164-5f7063625858,rev?*%
%TF.SameCoordinates,Original*%
%TF.FileFunction,Drillmap*%
%TF.FilePolarity,Positive*%
%FSLAX45Y45*%
G04 Gerber Fmt 4.5, Leading zero omitted, Abs format (unit mm)*
G04 Created by KiCad (PCBNEW 8.0.0) date 2024-03-18 12:56:35*
%MOMM*%
%LPD*%
G01*
G04 APERTURE LIST*
%ADD10C,0.050000*%
%ADD11C,0.200000*%
%ADD12C,0.100000*%
%ADD13C,0.120000*%
%ADD14C,0.152400*%
%ADD15C,0.220000*%
G04 APERTURE END LIST*
D10*
X9600000Y-3700000D02*
X15200000Y-3700000D01*
X9600000Y-13800000D02*
G75*
G02*
X9300000Y-13500000I0J300000D01*
G01*
X9300000Y-13500000D02*
X9300000Y-4000000D01*
X15200000Y-13800000D02*
X9600000Y-13800000D01*
X15500000Y-13500000D02*
G75*
G02*
X15200000Y-13800000I-300000J0D01*
G01*
X15500000Y-4000000D02*
X15500000Y-13500000D01*
X9300000Y-4000000D02*
G75*
G02*
X9600000Y-3700000I300000J0D01*
G01*
X15200000Y-3700000D02*
G75*
G02*
X15500000Y-4000000I0J-300000D01*
G01*
D11*
D12*
X9465000Y-4030000D02*
X9505000Y-4070000D01*
X9505000Y-4030000D02*
X9465000Y-4070000D01*
X9513327Y-3913327D02*
X9553327Y-3953327D01*
X9553327Y-3913327D02*
X9513327Y-3953327D01*
X9513327Y-4146673D02*
X9553327Y-4186673D01*
X9553327Y-4146673D02*
X9513327Y-4186673D01*
X9630000Y-3865000D02*
X9670000Y-3905000D01*
X9670000Y-3865000D02*
X9630000Y-3905000D01*
X9630000Y-4195000D02*
X9670000Y-4235000D01*
X9670000Y-4195000D02*
X9630000Y-4235000D01*
X9746673Y-3913327D02*
X9786673Y-3953327D01*
X9786673Y-3913327D02*
X9746673Y-3953327D01*
X9746673Y-4146673D02*
X9786673Y-4186673D01*
X9786673Y-4146673D02*
X9746673Y-4186673D01*
X9795000Y-4030000D02*
X9835000Y-4070000D01*
X9835000Y-4030000D02*
X9795000Y-4070000D01*
X14965000Y-4030000D02*
X15005000Y-4070000D01*
X15005000Y-4030000D02*
X14965000Y-4070000D01*
X15013327Y-3913327D02*
X15053327Y-3953327D01*
X15053327Y-3913327D02*
X15013327Y-3953327D01*
X15013327Y-4146673D02*
X15053327Y-4186673D01*
X15053327Y-4146673D02*
X15013327Y-4186673D01*
X15130000Y-3865000D02*
X15170000Y-3905000D01*
X15170000Y-3865000D02*
X15130000Y-3905000D01*
X15130000Y-4195000D02*
X15170000Y-4235000D01*
X15170000Y-4195000D02*
X15130000Y-4235000D01*
X15246673Y-3913327D02*
X15286673Y-3953327D01*
X15286673Y-3913327D02*
X15246673Y-3953327D01*
X15246673Y-4146673D02*
X15286673Y-4186673D01*
X15286673Y-4146673D02*
X15246673Y-4186673D01*
X15295000Y-4030000D02*
X15335000Y-4070000D01*
X15335000Y-4030000D02*
X15295000Y-4070000D01*
X12250000Y-4180000D02*
G75*
G02*
X12150000Y-4180000I-50000J0D01*
G01*
X12150000Y-4180000D02*
G75*
G02*
X12250000Y-4180000I50000J0D01*
G01*
X12250000Y-4434000D02*
G75*
G02*
X12150000Y-4434000I-50000J0D01*
G01*
X12150000Y-4434000D02*
G75*
G02*
X12250000Y-4434000I50000J0D01*
G01*
X12250000Y-4688000D02*
G75*
G02*
X12150000Y-4688000I-50000J0D01*
G01*
X12150000Y-4688000D02*
G75*
G02*
X12250000Y-4688000I50000J0D01*
G01*
X12250000Y-4942000D02*
G75*
G02*
X12150000Y-4942000I-50000J0D01*
G01*
X12150000Y-4942000D02*
G75*
G02*
X12250000Y-4942000I50000J0D01*
G01*
X12250000Y-5196000D02*
G75*
G02*
X12150000Y-5196000I-50000J0D01*
G01*
X12150000Y-5196000D02*
G75*
G02*
X12250000Y-5196000I50000J0D01*
G01*
X12250000Y-5450000D02*
G75*
G02*
X12150000Y-5450000I-50000J0D01*
G01*
X12150000Y-5450000D02*
G75*
G02*
X12250000Y-5450000I50000J0D01*
G01*
D13*
X10200000Y-4028000D02*
X10200000Y-4148000D01*
X10140000Y-4088000D02*
X10260000Y-4088000D01*
X10200000Y-4282000D02*
X10200000Y-4402000D01*
X10140000Y-4342000D02*
X10260000Y-4342000D01*
X10200000Y-4536000D02*
X10200000Y-4656000D01*
X10140000Y-4596000D02*
X10260000Y-4596000D01*
X10200000Y-4790000D02*
X10200000Y-4910000D01*
X10140000Y-4850000D02*
X10260000Y-4850000D01*
X10200000Y-5044000D02*
X10200000Y-5164000D01*
X10140000Y-5104000D02*
X10260000Y-5104000D01*
X10200000Y-5298000D02*
X10200000Y-5418000D01*
X10140000Y-5358000D02*
X10260000Y-5358000D01*
X10200000Y-5552000D02*
X10200000Y-5672000D01*
X10140000Y-5612000D02*
X10260000Y-5612000D01*
X11724000Y-4028000D02*
X11724000Y-4148000D01*
X11664000Y-4088000D02*
X11784000Y-4088000D01*
X11724000Y-4282000D02*
X11724000Y-4402000D01*
X11664000Y-4342000D02*
X11784000Y-4342000D01*
X11724000Y-4536000D02*
X11724000Y-4656000D01*
X11664000Y-4596000D02*
X11784000Y-4596000D01*
X11724000Y-4790000D02*
X11724000Y-4910000D01*
X11664000Y-4850000D02*
X11784000Y-4850000D01*
X11724000Y-5044000D02*
X11724000Y-5164000D01*
X11664000Y-5104000D02*
X11784000Y-5104000D01*
X11724000Y-5298000D02*
X11724000Y-5418000D01*
X11664000Y-5358000D02*
X11784000Y-5358000D01*
X11724000Y-5552000D02*
X11724000Y-5672000D01*
X11664000Y-5612000D02*
X11784000Y-5612000D01*
D14*
X10172882Y-8599882D02*
X10172882Y-8492118D01*
X10065118Y-8492118D01*
X10065118Y-8599882D01*
X10172882Y-8599882D01*
X10172882Y-10499882D02*
X10172882Y-10392118D01*
X10065118Y-10392118D01*
X10065118Y-10499882D01*
X10172882Y-10499882D01*
X10172882Y-12399882D02*
X10172882Y-12292118D01*
X10065118Y-12292118D01*
X10065118Y-12399882D01*
X10172882Y-12399882D01*
X10180882Y-6699882D02*
X10180882Y-6592118D01*
X10073118Y-6592118D01*
X10073118Y-6699882D01*
X10180882Y-6699882D01*
X10807882Y-8345882D02*
X10807882Y-8238118D01*
X10700118Y-8238118D01*
X10700118Y-8345882D01*
X10807882Y-8345882D01*
X10807882Y-10245882D02*
X10807882Y-10138118D01*
X10700118Y-10138118D01*
X10700118Y-10245882D01*
X10807882Y-10245882D01*
X10807882Y-12145882D02*
X10807882Y-12038118D01*
X10700118Y-12038118D01*
X10700118Y-12145882D01*
X10807882Y-12145882D01*
X10815882Y-6445882D02*
X10815882Y-6338118D01*
X10708118Y-6338118D01*
X10708118Y-6445882D01*
X10815882Y-6445882D01*
X12072882Y-6699882D02*
X12072882Y-6592118D01*
X11965118Y-6592118D01*
X11965118Y-6699882D01*
X12072882Y-6699882D01*
X12072882Y-8599882D02*
X12072882Y-8492118D01*
X11965118Y-8492118D01*
X11965118Y-8599882D01*
X12072882Y-8599882D01*
X12072882Y-10499882D02*
X12072882Y-10392118D01*
X11965118Y-10392118D01*
X11965118Y-10499882D01*
X12072882Y-10499882D01*
X12072882Y-12399882D02*
X12072882Y-12292118D01*
X11965118Y-12292118D01*
X11965118Y-12399882D01*
X12072882Y-12399882D01*
X12707882Y-6445882D02*
X12707882Y-6338118D01*
X12600118Y-6338118D01*
X12600118Y-6445882D01*
X12707882Y-6445882D01*
X12707882Y-8345882D02*
X12707882Y-8238118D01*
X12600118Y-8238118D01*
X12600118Y-8345882D01*
X12707882Y-8345882D01*
X12707882Y-10245882D02*
X12707882Y-10138118D01*
X12600118Y-10138118D01*
X12600118Y-10245882D01*
X12707882Y-10245882D01*
X12707882Y-12145882D02*
X12707882Y-12038118D01*
X12600118Y-12038118D01*
X12600118Y-12145882D01*
X12707882Y-12145882D01*
X13972882Y-6699882D02*
X13972882Y-6592118D01*
X13865118Y-6592118D01*
X13865118Y-6699882D01*
X13972882Y-6699882D01*
X13972882Y-8599882D02*
X13972882Y-8492118D01*
X13865118Y-8492118D01*
X13865118Y-8599882D01*
X13972882Y-8599882D01*
X13972882Y-10499882D02*
X13972882Y-10392118D01*
X13865118Y-10392118D01*
X13865118Y-10499882D01*
X13972882Y-10499882D01*
X13972882Y-12399882D02*
X13972882Y-12292118D01*
X13865118Y-12292118D01*
X13865118Y-12399882D01*
X13972882Y-12399882D01*
X14607882Y-6445882D02*
X14607882Y-6338118D01*
X14500118Y-6338118D01*
X14500118Y-6445882D01*
X14607882Y-6445882D01*
X14607882Y-8345882D02*
X14607882Y-8238118D01*
X14500118Y-8238118D01*
X14500118Y-8345882D01*
X14607882Y-8345882D01*
X14607882Y-10245882D02*
X14607882Y-10138118D01*
X14500118Y-10138118D01*
X14500118Y-10245882D01*
X14607882Y-10245882D01*
X14607882Y-12145882D02*
X14607882Y-12038118D01*
X14500118Y-12038118D01*
X14500118Y-12145882D01*
X14607882Y-12145882D01*
D15*
X9650000Y-4160000D02*
X9760000Y-4050000D01*
X9650000Y-3940000D01*
X9540000Y-4050000D01*
X9650000Y-4160000D01*
X15150000Y-4160000D02*
X15260000Y-4050000D01*
X15150000Y-3940000D01*
X15040000Y-4050000D01*
X15150000Y-4160000D01*
D11*
X9558277Y-14113984D02*
X9558277Y-13913984D01*
X9558277Y-13913984D02*
X9605896Y-13913984D01*
X9605896Y-13913984D02*
X9634467Y-13923508D01*
X9634467Y-13923508D02*
X9653515Y-13942555D01*
X9653515Y-13942555D02*
X9663039Y-13961603D01*
X9663039Y-13961603D02*
X9672563Y-13999698D01*
X9672563Y-13999698D02*
X9672563Y-14028269D01*
X9672563Y-14028269D02*
X9663039Y-14066365D01*
X9663039Y-14066365D02*
X9653515Y-14085412D01*
X9653515Y-14085412D02*
X9634467Y-14104460D01*
X9634467Y-14104460D02*
X9605896Y-14113984D01*
X9605896Y-14113984D02*
X9558277Y-14113984D01*
X9758277Y-14113984D02*
X9758277Y-13980650D01*
X9758277Y-14018746D02*
X9767801Y-13999698D01*
X9767801Y-13999698D02*
X9777324Y-13990174D01*
X9777324Y-13990174D02*
X9796372Y-13980650D01*
X9796372Y-13980650D02*
X9815420Y-13980650D01*
X9882086Y-14113984D02*
X9882086Y-13980650D01*
X9882086Y-13913984D02*
X9872563Y-13923508D01*
X9872563Y-13923508D02*
X9882086Y-13933031D01*
X9882086Y-13933031D02*
X9891610Y-13923508D01*
X9891610Y-13923508D02*
X9882086Y-13913984D01*
X9882086Y-13913984D02*
X9882086Y-13933031D01*
X10005896Y-14113984D02*
X9986848Y-14104460D01*
X9986848Y-14104460D02*
X9977324Y-14085412D01*
X9977324Y-14085412D02*
X9977324Y-13913984D01*
X10110658Y-14113984D02*
X10091610Y-14104460D01*
X10091610Y-14104460D02*
X10082086Y-14085412D01*
X10082086Y-14085412D02*
X10082086Y-13913984D01*
X10339229Y-14113984D02*
X10339229Y-13913984D01*
X10339229Y-13913984D02*
X10405896Y-14056841D01*
X10405896Y-14056841D02*
X10472563Y-13913984D01*
X10472563Y-13913984D02*
X10472563Y-14113984D01*
X10653515Y-14113984D02*
X10653515Y-14009222D01*
X10653515Y-14009222D02*
X10643991Y-13990174D01*
X10643991Y-13990174D02*
X10624944Y-13980650D01*
X10624944Y-13980650D02*
X10586848Y-13980650D01*
X10586848Y-13980650D02*
X10567801Y-13990174D01*
X10653515Y-14104460D02*
X10634467Y-14113984D01*
X10634467Y-14113984D02*
X10586848Y-14113984D01*
X10586848Y-14113984D02*
X10567801Y-14104460D01*
X10567801Y-14104460D02*
X10558277Y-14085412D01*
X10558277Y-14085412D02*
X10558277Y-14066365D01*
X10558277Y-14066365D02*
X10567801Y-14047317D01*
X10567801Y-14047317D02*
X10586848Y-14037793D01*
X10586848Y-14037793D02*
X10634467Y-14037793D01*
X10634467Y-14037793D02*
X10653515Y-14028269D01*
X10748753Y-13980650D02*
X10748753Y-14180650D01*
X10748753Y-13990174D02*
X10767801Y-13980650D01*
X10767801Y-13980650D02*
X10805896Y-13980650D01*
X10805896Y-13980650D02*
X10824944Y-13990174D01*
X10824944Y-13990174D02*
X10834467Y-13999698D01*
X10834467Y-13999698D02*
X10843991Y-14018746D01*
X10843991Y-14018746D02*
X10843991Y-14075888D01*
X10843991Y-14075888D02*
X10834467Y-14094936D01*
X10834467Y-14094936D02*
X10824944Y-14104460D01*
X10824944Y-14104460D02*
X10805896Y-14113984D01*
X10805896Y-14113984D02*
X10767801Y-14113984D01*
X10767801Y-14113984D02*
X10748753Y-14104460D01*
X10929705Y-14094936D02*
X10939229Y-14104460D01*
X10939229Y-14104460D02*
X10929705Y-14113984D01*
X10929705Y-14113984D02*
X10920182Y-14104460D01*
X10920182Y-14104460D02*
X10929705Y-14094936D01*
X10929705Y-14094936D02*
X10929705Y-14113984D01*
X10929705Y-13990174D02*
X10939229Y-13999698D01*
X10939229Y-13999698D02*
X10929705Y-14009222D01*
X10929705Y-14009222D02*
X10920182Y-13999698D01*
X10920182Y-13999698D02*
X10929705Y-13990174D01*
X10929705Y-13990174D02*
X10929705Y-14009222D01*
D12*
X9257500Y-14422500D02*
X9297500Y-14462500D01*
X9297500Y-14422500D02*
X9257500Y-14462500D01*
D11*
X9596372Y-14333984D02*
X9615420Y-14333984D01*
X9615420Y-14333984D02*
X9634467Y-14343508D01*
X9634467Y-14343508D02*
X9643991Y-14353031D01*
X9643991Y-14353031D02*
X9653515Y-14372079D01*
X9653515Y-14372079D02*
X9663039Y-14410174D01*
X9663039Y-14410174D02*
X9663039Y-14457793D01*
X9663039Y-14457793D02*
X9653515Y-14495888D01*
X9653515Y-14495888D02*
X9643991Y-14514936D01*
X9643991Y-14514936D02*
X9634467Y-14524460D01*
X9634467Y-14524460D02*
X9615420Y-14533984D01*
X9615420Y-14533984D02*
X9596372Y-14533984D01*
X9596372Y-14533984D02*
X9577324Y-14524460D01*
X9577324Y-14524460D02*
X9567801Y-14514936D01*
X9567801Y-14514936D02*
X9558277Y-14495888D01*
X9558277Y-14495888D02*
X9548753Y-14457793D01*
X9548753Y-14457793D02*
X9548753Y-14410174D01*
X9548753Y-14410174D02*
X9558277Y-14372079D01*
X9558277Y-14372079D02*
X9567801Y-14353031D01*
X9567801Y-14353031D02*
X9577324Y-14343508D01*
X9577324Y-14343508D02*
X9596372Y-14333984D01*
X9748753Y-14514936D02*
X9758277Y-14524460D01*
X9758277Y-14524460D02*
X9748753Y-14533984D01*
X9748753Y-14533984D02*
X9739229Y-14524460D01*
X9739229Y-14524460D02*
X9748753Y-14514936D01*
X9748753Y-14514936D02*
X9748753Y-14533984D01*
X9929705Y-14400650D02*
X9929705Y-14533984D01*
X9882086Y-14324460D02*
X9834467Y-14467317D01*
X9834467Y-14467317D02*
X9958277Y-14467317D01*
X10072563Y-14333984D02*
X10091610Y-14333984D01*
X10091610Y-14333984D02*
X10110658Y-14343508D01*
X10110658Y-14343508D02*
X10120182Y-14353031D01*
X10120182Y-14353031D02*
X10129705Y-14372079D01*
X10129705Y-14372079D02*
X10139229Y-14410174D01*
X10139229Y-14410174D02*
X10139229Y-14457793D01*
X10139229Y-14457793D02*
X10129705Y-14495888D01*
X10129705Y-14495888D02*
X10120182Y-14514936D01*
X10120182Y-14514936D02*
X10110658Y-14524460D01*
X10110658Y-14524460D02*
X10091610Y-14533984D01*
X10091610Y-14533984D02*
X10072563Y-14533984D01*
X10072563Y-14533984D02*
X10053515Y-14524460D01*
X10053515Y-14524460D02*
X10043991Y-14514936D01*
X10043991Y-14514936D02*
X10034467Y-14495888D01*
X10034467Y-14495888D02*
X10024944Y-14457793D01*
X10024944Y-14457793D02*
X10024944Y-14410174D01*
X10024944Y-14410174D02*
X10034467Y-14372079D01*
X10034467Y-14372079D02*
X10043991Y-14353031D01*
X10043991Y-14353031D02*
X10053515Y-14343508D01*
X10053515Y-14343508D02*
X10072563Y-14333984D01*
X10263039Y-14333984D02*
X10282086Y-14333984D01*
X10282086Y-14333984D02*
X10301134Y-14343508D01*
X10301134Y-14343508D02*
X10310658Y-14353031D01*
X10310658Y-14353031D02*
X10320182Y-14372079D01*
X10320182Y-14372079D02*
X10329705Y-14410174D01*
X10329705Y-14410174D02*
X10329705Y-14457793D01*
X10329705Y-14457793D02*
X10320182Y-14495888D01*
X10320182Y-14495888D02*
X10310658Y-14514936D01*
X10310658Y-14514936D02*
X10301134Y-14524460D01*
X10301134Y-14524460D02*
X10282086Y-14533984D01*
X10282086Y-14533984D02*
X10263039Y-14533984D01*
X10263039Y-14533984D02*
X10243991Y-14524460D01*
X10243991Y-14524460D02*
X10234467Y-14514936D01*
X10234467Y-14514936D02*
X10224944Y-14495888D01*
X10224944Y-14495888D02*
X10215420Y-14457793D01*
X10215420Y-14457793D02*
X10215420Y-14410174D01*
X10215420Y-14410174D02*
X10224944Y-14372079D01*
X10224944Y-14372079D02*
X10234467Y-14353031D01*
X10234467Y-14353031D02*
X10243991Y-14343508D01*
X10243991Y-14343508D02*
X10263039Y-14333984D01*
X10415420Y-14533984D02*
X10415420Y-14400650D01*
X10415420Y-14419698D02*
X10424944Y-14410174D01*
X10424944Y-14410174D02*
X10443991Y-14400650D01*
X10443991Y-14400650D02*
X10472563Y-14400650D01*
X10472563Y-14400650D02*
X10491610Y-14410174D01*
X10491610Y-14410174D02*
X10501134Y-14429222D01*
X10501134Y-14429222D02*
X10501134Y-14533984D01*
X10501134Y-14429222D02*
X10510658Y-14410174D01*
X10510658Y-14410174D02*
X10529705Y-14400650D01*
X10529705Y-14400650D02*
X10558277Y-14400650D01*
X10558277Y-14400650D02*
X10577325Y-14410174D01*
X10577325Y-14410174D02*
X10586848Y-14429222D01*
X10586848Y-14429222D02*
X10586848Y-14533984D01*
X10682086Y-14533984D02*
X10682086Y-14400650D01*
X10682086Y-14419698D02*
X10691610Y-14410174D01*
X10691610Y-14410174D02*
X10710658Y-14400650D01*
X10710658Y-14400650D02*
X10739229Y-14400650D01*
X10739229Y-14400650D02*
X10758277Y-14410174D01*
X10758277Y-14410174D02*
X10767801Y-14429222D01*
X10767801Y-14429222D02*
X10767801Y-14533984D01*
X10767801Y-14429222D02*
X10777325Y-14410174D01*
X10777325Y-14410174D02*
X10796372Y-14400650D01*
X10796372Y-14400650D02*
X10824944Y-14400650D01*
X10824944Y-14400650D02*
X10843991Y-14410174D01*
X10843991Y-14410174D02*
X10853515Y-14429222D01*
X10853515Y-14429222D02*
X10853515Y-14533984D01*
X11243991Y-14324460D02*
X11072563Y-14581603D01*
X11501134Y-14333984D02*
X11520182Y-14333984D01*
X11520182Y-14333984D02*
X11539229Y-14343508D01*
X11539229Y-14343508D02*
X11548753Y-14353031D01*
X11548753Y-14353031D02*
X11558277Y-14372079D01*
X11558277Y-14372079D02*
X11567801Y-14410174D01*
X11567801Y-14410174D02*
X11567801Y-14457793D01*
X11567801Y-14457793D02*
X11558277Y-14495888D01*
X11558277Y-14495888D02*
X11548753Y-14514936D01*
X11548753Y-14514936D02*
X11539229Y-14524460D01*
X11539229Y-14524460D02*
X11520182Y-14533984D01*
X11520182Y-14533984D02*
X11501134Y-14533984D01*
X11501134Y-14533984D02*
X11482086Y-14524460D01*
X11482086Y-14524460D02*
X11472563Y-14514936D01*
X11472563Y-14514936D02*
X11463039Y-14495888D01*
X11463039Y-14495888D02*
X11453515Y-14457793D01*
X11453515Y-14457793D02*
X11453515Y-14410174D01*
X11453515Y-14410174D02*
X11463039Y-14372079D01*
X11463039Y-14372079D02*
X11472563Y-14353031D01*
X11472563Y-14353031D02*
X11482086Y-14343508D01*
X11482086Y-14343508D02*
X11501134Y-14333984D01*
X11653515Y-14514936D02*
X11663039Y-14524460D01*
X11663039Y-14524460D02*
X11653515Y-14533984D01*
X11653515Y-14533984D02*
X11643991Y-14524460D01*
X11643991Y-14524460D02*
X11653515Y-14514936D01*
X11653515Y-14514936D02*
X11653515Y-14533984D01*
X11786848Y-14333984D02*
X11805896Y-14333984D01*
X11805896Y-14333984D02*
X11824944Y-14343508D01*
X11824944Y-14343508D02*
X11834467Y-14353031D01*
X11834467Y-14353031D02*
X11843991Y-14372079D01*
X11843991Y-14372079D02*
X11853515Y-14410174D01*
X11853515Y-14410174D02*
X11853515Y-14457793D01*
X11853515Y-14457793D02*
X11843991Y-14495888D01*
X11843991Y-14495888D02*
X11834467Y-14514936D01*
X11834467Y-14514936D02*
X11824944Y-14524460D01*
X11824944Y-14524460D02*
X11805896Y-14533984D01*
X11805896Y-14533984D02*
X11786848Y-14533984D01*
X11786848Y-14533984D02*
X11767801Y-14524460D01*
X11767801Y-14524460D02*
X11758277Y-14514936D01*
X11758277Y-14514936D02*
X11748753Y-14495888D01*
X11748753Y-14495888D02*
X11739229Y-14457793D01*
X11739229Y-14457793D02*
X11739229Y-14410174D01*
X11739229Y-14410174D02*
X11748753Y-14372079D01*
X11748753Y-14372079D02*
X11758277Y-14353031D01*
X11758277Y-14353031D02*
X11767801Y-14343508D01*
X11767801Y-14343508D02*
X11786848Y-14333984D01*
X12043991Y-14533984D02*
X11929706Y-14533984D01*
X11986848Y-14533984D02*
X11986848Y-14333984D01*
X11986848Y-14333984D02*
X11967801Y-14362555D01*
X11967801Y-14362555D02*
X11948753Y-14381603D01*
X11948753Y-14381603D02*
X11929706Y-14391127D01*
X12224944Y-14333984D02*
X12129706Y-14333984D01*
X12129706Y-14333984D02*
X12120182Y-14429222D01*
X12120182Y-14429222D02*
X12129706Y-14419698D01*
X12129706Y-14419698D02*
X12148753Y-14410174D01*
X12148753Y-14410174D02*
X12196372Y-14410174D01*
X12196372Y-14410174D02*
X12215420Y-14419698D01*
X12215420Y-14419698D02*
X12224944Y-14429222D01*
X12224944Y-14429222D02*
X12234467Y-14448269D01*
X12234467Y-14448269D02*
X12234467Y-14495888D01*
X12234467Y-14495888D02*
X12224944Y-14514936D01*
X12224944Y-14514936D02*
X12215420Y-14524460D01*
X12215420Y-14524460D02*
X12196372Y-14533984D01*
X12196372Y-14533984D02*
X12148753Y-14533984D01*
X12148753Y-14533984D02*
X12129706Y-14524460D01*
X12129706Y-14524460D02*
X12120182Y-14514936D01*
X12301134Y-14333984D02*
X12434467Y-14333984D01*
X12434467Y-14333984D02*
X12348753Y-14533984D01*
X12501134Y-14333984D02*
X12501134Y-14372079D01*
X12577325Y-14333984D02*
X12577325Y-14372079D01*
X12872563Y-14610174D02*
X12863039Y-14600650D01*
X12863039Y-14600650D02*
X12843991Y-14572079D01*
X12843991Y-14572079D02*
X12834468Y-14553031D01*
X12834468Y-14553031D02*
X12824944Y-14524460D01*
X12824944Y-14524460D02*
X12815420Y-14476841D01*
X12815420Y-14476841D02*
X12815420Y-14438746D01*
X12815420Y-14438746D02*
X12824944Y-14391127D01*
X12824944Y-14391127D02*
X12834468Y-14362555D01*
X12834468Y-14362555D02*
X12843991Y-14343508D01*
X12843991Y-14343508D02*
X12863039Y-14314936D01*
X12863039Y-14314936D02*
X12872563Y-14305412D01*
X13053515Y-14533984D02*
X12939229Y-14533984D01*
X12996372Y-14533984D02*
X12996372Y-14333984D01*
X12996372Y-14333984D02*
X12977325Y-14362555D01*
X12977325Y-14362555D02*
X12958277Y-14381603D01*
X12958277Y-14381603D02*
X12939229Y-14391127D01*
X13224944Y-14333984D02*
X13186848Y-14333984D01*
X13186848Y-14333984D02*
X13167801Y-14343508D01*
X13167801Y-14343508D02*
X13158277Y-14353031D01*
X13158277Y-14353031D02*
X13139229Y-14381603D01*
X13139229Y-14381603D02*
X13129706Y-14419698D01*
X13129706Y-14419698D02*
X13129706Y-14495888D01*
X13129706Y-14495888D02*
X13139229Y-14514936D01*
X13139229Y-14514936D02*
X13148753Y-14524460D01*
X13148753Y-14524460D02*
X13167801Y-14533984D01*
X13167801Y-14533984D02*
X13205896Y-14533984D01*
X13205896Y-14533984D02*
X13224944Y-14524460D01*
X13224944Y-14524460D02*
X13234468Y-14514936D01*
X13234468Y-14514936D02*
X13243991Y-14495888D01*
X13243991Y-14495888D02*
X13243991Y-14448269D01*
X13243991Y-14448269D02*
X13234468Y-14429222D01*
X13234468Y-14429222D02*
X13224944Y-14419698D01*
X13224944Y-14419698D02*
X13205896Y-14410174D01*
X13205896Y-14410174D02*
X13167801Y-14410174D01*
X13167801Y-14410174D02*
X13148753Y-14419698D01*
X13148753Y-14419698D02*
X13139229Y-14429222D01*
X13139229Y-14429222D02*
X13129706Y-14448269D01*
X13482087Y-14533984D02*
X13482087Y-14333984D01*
X13567801Y-14533984D02*
X13567801Y-14429222D01*
X13567801Y-14429222D02*
X13558277Y-14410174D01*
X13558277Y-14410174D02*
X13539230Y-14400650D01*
X13539230Y-14400650D02*
X13510658Y-14400650D01*
X13510658Y-14400650D02*
X13491610Y-14410174D01*
X13491610Y-14410174D02*
X13482087Y-14419698D01*
X13691610Y-14533984D02*
X13672563Y-14524460D01*
X13672563Y-14524460D02*
X13663039Y-14514936D01*
X13663039Y-14514936D02*
X13653515Y-14495888D01*
X13653515Y-14495888D02*
X13653515Y-14438746D01*
X13653515Y-14438746D02*
X13663039Y-14419698D01*
X13663039Y-14419698D02*
X13672563Y-14410174D01*
X13672563Y-14410174D02*
X13691610Y-14400650D01*
X13691610Y-14400650D02*
X13720182Y-14400650D01*
X13720182Y-14400650D02*
X13739230Y-14410174D01*
X13739230Y-14410174D02*
X13748753Y-14419698D01*
X13748753Y-14419698D02*
X13758277Y-14438746D01*
X13758277Y-14438746D02*
X13758277Y-14495888D01*
X13758277Y-14495888D02*
X13748753Y-14514936D01*
X13748753Y-14514936D02*
X13739230Y-14524460D01*
X13739230Y-14524460D02*
X13720182Y-14533984D01*
X13720182Y-14533984D02*
X13691610Y-14533984D01*
X13872563Y-14533984D02*
X13853515Y-14524460D01*
X13853515Y-14524460D02*
X13843991Y-14505412D01*
X13843991Y-14505412D02*
X13843991Y-14333984D01*
X14024944Y-14524460D02*
X14005896Y-14533984D01*
X14005896Y-14533984D02*
X13967801Y-14533984D01*
X13967801Y-14533984D02*
X13948753Y-14524460D01*
X13948753Y-14524460D02*
X13939230Y-14505412D01*
X13939230Y-14505412D02*
X13939230Y-14429222D01*
X13939230Y-14429222D02*
X13948753Y-14410174D01*
X13948753Y-14410174D02*
X13967801Y-14400650D01*
X13967801Y-14400650D02*
X14005896Y-14400650D01*
X14005896Y-14400650D02*
X14024944Y-14410174D01*
X14024944Y-14410174D02*
X14034468Y-14429222D01*
X14034468Y-14429222D02*
X14034468Y-14448269D01*
X14034468Y-14448269D02*
X13939230Y-14467317D01*
X14110658Y-14524460D02*
X14129706Y-14533984D01*
X14129706Y-14533984D02*
X14167801Y-14533984D01*
X14167801Y-14533984D02*
X14186849Y-14524460D01*
X14186849Y-14524460D02*
X14196372Y-14505412D01*
X14196372Y-14505412D02*
X14196372Y-14495888D01*
X14196372Y-14495888D02*
X14186849Y-14476841D01*
X14186849Y-14476841D02*
X14167801Y-14467317D01*
X14167801Y-14467317D02*
X14139230Y-14467317D01*
X14139230Y-14467317D02*
X14120182Y-14457793D01*
X14120182Y-14457793D02*
X14110658Y-14438746D01*
X14110658Y-14438746D02*
X14110658Y-14429222D01*
X14110658Y-14429222D02*
X14120182Y-14410174D01*
X14120182Y-14410174D02*
X14139230Y-14400650D01*
X14139230Y-14400650D02*
X14167801Y-14400650D01*
X14167801Y-14400650D02*
X14186849Y-14410174D01*
X14263039Y-14610174D02*
X14272563Y-14600650D01*
X14272563Y-14600650D02*
X14291611Y-14572079D01*
X14291611Y-14572079D02*
X14301134Y-14553031D01*
X14301134Y-14553031D02*
X14310658Y-14524460D01*
X14310658Y-14524460D02*
X14320182Y-14476841D01*
X14320182Y-14476841D02*
X14320182Y-14438746D01*
X14320182Y-14438746D02*
X14310658Y-14391127D01*
X14310658Y-14391127D02*
X14301134Y-14362555D01*
X14301134Y-14362555D02*
X14291611Y-14343508D01*
X14291611Y-14343508D02*
X14272563Y-14314936D01*
X14272563Y-14314936D02*
X14263039Y-14305412D01*
D12*
X9297500Y-14706500D02*
G75*
G02*
X9197500Y-14706500I-50000J0D01*
G01*
X9197500Y-14706500D02*
G75*
G02*
X9297500Y-14706500I50000J0D01*
G01*
D11*
X9663039Y-14797984D02*
X9548753Y-14797984D01*
X9605896Y-14797984D02*
X9605896Y-14597984D01*
X9605896Y-14597984D02*
X9586848Y-14626555D01*
X9586848Y-14626555D02*
X9567801Y-14645603D01*
X9567801Y-14645603D02*
X9548753Y-14655127D01*
X9748753Y-14778936D02*
X9758277Y-14788460D01*
X9758277Y-14788460D02*
X9748753Y-14797984D01*
X9748753Y-14797984D02*
X9739229Y-14788460D01*
X9739229Y-14788460D02*
X9748753Y-14778936D01*
X9748753Y-14778936D02*
X9748753Y-14797984D01*
X9882086Y-14597984D02*
X9901134Y-14597984D01*
X9901134Y-14597984D02*
X9920182Y-14607508D01*
X9920182Y-14607508D02*
X9929705Y-14617031D01*
X9929705Y-14617031D02*
X9939229Y-14636079D01*
X9939229Y-14636079D02*
X9948753Y-14674174D01*
X9948753Y-14674174D02*
X9948753Y-14721793D01*
X9948753Y-14721793D02*
X9939229Y-14759888D01*
X9939229Y-14759888D02*
X9929705Y-14778936D01*
X9929705Y-14778936D02*
X9920182Y-14788460D01*
X9920182Y-14788460D02*
X9901134Y-14797984D01*
X9901134Y-14797984D02*
X9882086Y-14797984D01*
X9882086Y-14797984D02*
X9863039Y-14788460D01*
X9863039Y-14788460D02*
X9853515Y-14778936D01*
X9853515Y-14778936D02*
X9843991Y-14759888D01*
X9843991Y-14759888D02*
X9834467Y-14721793D01*
X9834467Y-14721793D02*
X9834467Y-14674174D01*
X9834467Y-14674174D02*
X9843991Y-14636079D01*
X9843991Y-14636079D02*
X9853515Y-14617031D01*
X9853515Y-14617031D02*
X9863039Y-14607508D01*
X9863039Y-14607508D02*
X9882086Y-14597984D01*
X10072563Y-14597984D02*
X10091610Y-14597984D01*
X10091610Y-14597984D02*
X10110658Y-14607508D01*
X10110658Y-14607508D02*
X10120182Y-14617031D01*
X10120182Y-14617031D02*
X10129705Y-14636079D01*
X10129705Y-14636079D02*
X10139229Y-14674174D01*
X10139229Y-14674174D02*
X10139229Y-14721793D01*
X10139229Y-14721793D02*
X10129705Y-14759888D01*
X10129705Y-14759888D02*
X10120182Y-14778936D01*
X10120182Y-14778936D02*
X10110658Y-14788460D01*
X10110658Y-14788460D02*
X10091610Y-14797984D01*
X10091610Y-14797984D02*
X10072563Y-14797984D01*
X10072563Y-14797984D02*
X10053515Y-14788460D01*
X10053515Y-14788460D02*
X10043991Y-14778936D01*
X10043991Y-14778936D02*
X10034467Y-14759888D01*
X10034467Y-14759888D02*
X10024944Y-14721793D01*
X10024944Y-14721793D02*
X10024944Y-14674174D01*
X10024944Y-14674174D02*
X10034467Y-14636079D01*
X10034467Y-14636079D02*
X10043991Y-14617031D01*
X10043991Y-14617031D02*
X10053515Y-14607508D01*
X10053515Y-14607508D02*
X10072563Y-14597984D01*
X10263039Y-14597984D02*
X10282086Y-14597984D01*
X10282086Y-14597984D02*
X10301134Y-14607508D01*
X10301134Y-14607508D02*
X10310658Y-14617031D01*
X10310658Y-14617031D02*
X10320182Y-14636079D01*
X10320182Y-14636079D02*
X10329705Y-14674174D01*
X10329705Y-14674174D02*
X10329705Y-14721793D01*
X10329705Y-14721793D02*
X10320182Y-14759888D01*
X10320182Y-14759888D02*
X10310658Y-14778936D01*
X10310658Y-14778936D02*
X10301134Y-14788460D01*
X10301134Y-14788460D02*
X10282086Y-14797984D01*
X10282086Y-14797984D02*
X10263039Y-14797984D01*
X10263039Y-14797984D02*
X10243991Y-14788460D01*
X10243991Y-14788460D02*
X10234467Y-14778936D01*
X10234467Y-14778936D02*
X10224944Y-14759888D01*
X10224944Y-14759888D02*
X10215420Y-14721793D01*
X10215420Y-14721793D02*
X10215420Y-14674174D01*
X10215420Y-14674174D02*
X10224944Y-14636079D01*
X10224944Y-14636079D02*
X10234467Y-14617031D01*
X10234467Y-14617031D02*
X10243991Y-14607508D01*
X10243991Y-14607508D02*
X10263039Y-14597984D01*
X10415420Y-14797984D02*
X10415420Y-14664650D01*
X10415420Y-14683698D02*
X10424944Y-14674174D01*
X10424944Y-14674174D02*
X10443991Y-14664650D01*
X10443991Y-14664650D02*
X10472563Y-14664650D01*
X10472563Y-14664650D02*
X10491610Y-14674174D01*
X10491610Y-14674174D02*
X10501134Y-14693222D01*
X10501134Y-14693222D02*
X10501134Y-14797984D01*
X10501134Y-14693222D02*
X10510658Y-14674174D01*
X10510658Y-14674174D02*
X10529705Y-14664650D01*
X10529705Y-14664650D02*
X10558277Y-14664650D01*
X10558277Y-14664650D02*
X10577325Y-14674174D01*
X10577325Y-14674174D02*
X10586848Y-14693222D01*
X10586848Y-14693222D02*
X10586848Y-14797984D01*
X10682086Y-14797984D02*
X10682086Y-14664650D01*
X10682086Y-14683698D02*
X10691610Y-14674174D01*
X10691610Y-14674174D02*
X10710658Y-14664650D01*
X10710658Y-14664650D02*
X10739229Y-14664650D01*
X10739229Y-14664650D02*
X10758277Y-14674174D01*
X10758277Y-14674174D02*
X10767801Y-14693222D01*
X10767801Y-14693222D02*
X10767801Y-14797984D01*
X10767801Y-14693222D02*
X10777325Y-14674174D01*
X10777325Y-14674174D02*
X10796372Y-14664650D01*
X10796372Y-14664650D02*
X10824944Y-14664650D01*
X10824944Y-14664650D02*
X10843991Y-14674174D01*
X10843991Y-14674174D02*
X10853515Y-14693222D01*
X10853515Y-14693222D02*
X10853515Y-14797984D01*
X11243991Y-14588460D02*
X11072563Y-14845603D01*
X11501134Y-14597984D02*
X11520182Y-14597984D01*
X11520182Y-14597984D02*
X11539229Y-14607508D01*
X11539229Y-14607508D02*
X11548753Y-14617031D01*
X11548753Y-14617031D02*
X11558277Y-14636079D01*
X11558277Y-14636079D02*
X11567801Y-14674174D01*
X11567801Y-14674174D02*
X11567801Y-14721793D01*
X11567801Y-14721793D02*
X11558277Y-14759888D01*
X11558277Y-14759888D02*
X11548753Y-14778936D01*
X11548753Y-14778936D02*
X11539229Y-14788460D01*
X11539229Y-14788460D02*
X11520182Y-14797984D01*
X11520182Y-14797984D02*
X11501134Y-14797984D01*
X11501134Y-14797984D02*
X11482086Y-14788460D01*
X11482086Y-14788460D02*
X11472563Y-14778936D01*
X11472563Y-14778936D02*
X11463039Y-14759888D01*
X11463039Y-14759888D02*
X11453515Y-14721793D01*
X11453515Y-14721793D02*
X11453515Y-14674174D01*
X11453515Y-14674174D02*
X11463039Y-14636079D01*
X11463039Y-14636079D02*
X11472563Y-14617031D01*
X11472563Y-14617031D02*
X11482086Y-14607508D01*
X11482086Y-14607508D02*
X11501134Y-14597984D01*
X11653515Y-14778936D02*
X11663039Y-14788460D01*
X11663039Y-14788460D02*
X11653515Y-14797984D01*
X11653515Y-14797984D02*
X11643991Y-14788460D01*
X11643991Y-14788460D02*
X11653515Y-14778936D01*
X11653515Y-14778936D02*
X11653515Y-14797984D01*
X11786848Y-14597984D02*
X11805896Y-14597984D01*
X11805896Y-14597984D02*
X11824944Y-14607508D01*
X11824944Y-14607508D02*
X11834467Y-14617031D01*
X11834467Y-14617031D02*
X11843991Y-14636079D01*
X11843991Y-14636079D02*
X11853515Y-14674174D01*
X11853515Y-14674174D02*
X11853515Y-14721793D01*
X11853515Y-14721793D02*
X11843991Y-14759888D01*
X11843991Y-14759888D02*
X11834467Y-14778936D01*
X11834467Y-14778936D02*
X11824944Y-14788460D01*
X11824944Y-14788460D02*
X11805896Y-14797984D01*
X11805896Y-14797984D02*
X11786848Y-14797984D01*
X11786848Y-14797984D02*
X11767801Y-14788460D01*
X11767801Y-14788460D02*
X11758277Y-14778936D01*
X11758277Y-14778936D02*
X11748753Y-14759888D01*
X11748753Y-14759888D02*
X11739229Y-14721793D01*
X11739229Y-14721793D02*
X11739229Y-14674174D01*
X11739229Y-14674174D02*
X11748753Y-14636079D01*
X11748753Y-14636079D02*
X11758277Y-14617031D01*
X11758277Y-14617031D02*
X11767801Y-14607508D01*
X11767801Y-14607508D02*
X11786848Y-14597984D01*
X11920182Y-14597984D02*
X12043991Y-14597984D01*
X12043991Y-14597984D02*
X11977325Y-14674174D01*
X11977325Y-14674174D02*
X12005896Y-14674174D01*
X12005896Y-14674174D02*
X12024944Y-14683698D01*
X12024944Y-14683698D02*
X12034467Y-14693222D01*
X12034467Y-14693222D02*
X12043991Y-14712269D01*
X12043991Y-14712269D02*
X12043991Y-14759888D01*
X12043991Y-14759888D02*
X12034467Y-14778936D01*
X12034467Y-14778936D02*
X12024944Y-14788460D01*
X12024944Y-14788460D02*
X12005896Y-14797984D01*
X12005896Y-14797984D02*
X11948753Y-14797984D01*
X11948753Y-14797984D02*
X11929706Y-14788460D01*
X11929706Y-14788460D02*
X11920182Y-14778936D01*
X12139229Y-14797984D02*
X12177325Y-14797984D01*
X12177325Y-14797984D02*
X12196372Y-14788460D01*
X12196372Y-14788460D02*
X12205896Y-14778936D01*
X12205896Y-14778936D02*
X12224944Y-14750365D01*
X12224944Y-14750365D02*
X12234467Y-14712269D01*
X12234467Y-14712269D02*
X12234467Y-14636079D01*
X12234467Y-14636079D02*
X12224944Y-14617031D01*
X12224944Y-14617031D02*
X12215420Y-14607508D01*
X12215420Y-14607508D02*
X12196372Y-14597984D01*
X12196372Y-14597984D02*
X12158277Y-14597984D01*
X12158277Y-14597984D02*
X12139229Y-14607508D01*
X12139229Y-14607508D02*
X12129706Y-14617031D01*
X12129706Y-14617031D02*
X12120182Y-14636079D01*
X12120182Y-14636079D02*
X12120182Y-14683698D01*
X12120182Y-14683698D02*
X12129706Y-14702746D01*
X12129706Y-14702746D02*
X12139229Y-14712269D01*
X12139229Y-14712269D02*
X12158277Y-14721793D01*
X12158277Y-14721793D02*
X12196372Y-14721793D01*
X12196372Y-14721793D02*
X12215420Y-14712269D01*
X12215420Y-14712269D02*
X12224944Y-14702746D01*
X12224944Y-14702746D02*
X12234467Y-14683698D01*
X12405896Y-14664650D02*
X12405896Y-14797984D01*
X12358277Y-14588460D02*
X12310658Y-14731317D01*
X12310658Y-14731317D02*
X12434467Y-14731317D01*
X12501134Y-14597984D02*
X12501134Y-14636079D01*
X12577325Y-14597984D02*
X12577325Y-14636079D01*
X12872563Y-14874174D02*
X12863039Y-14864650D01*
X12863039Y-14864650D02*
X12843991Y-14836079D01*
X12843991Y-14836079D02*
X12834468Y-14817031D01*
X12834468Y-14817031D02*
X12824944Y-14788460D01*
X12824944Y-14788460D02*
X12815420Y-14740841D01*
X12815420Y-14740841D02*
X12815420Y-14702746D01*
X12815420Y-14702746D02*
X12824944Y-14655127D01*
X12824944Y-14655127D02*
X12834468Y-14626555D01*
X12834468Y-14626555D02*
X12843991Y-14607508D01*
X12843991Y-14607508D02*
X12863039Y-14578936D01*
X12863039Y-14578936D02*
X12872563Y-14569412D01*
X13034468Y-14597984D02*
X12996372Y-14597984D01*
X12996372Y-14597984D02*
X12977325Y-14607508D01*
X12977325Y-14607508D02*
X12967801Y-14617031D01*
X12967801Y-14617031D02*
X12948753Y-14645603D01*
X12948753Y-14645603D02*
X12939229Y-14683698D01*
X12939229Y-14683698D02*
X12939229Y-14759888D01*
X12939229Y-14759888D02*
X12948753Y-14778936D01*
X12948753Y-14778936D02*
X12958277Y-14788460D01*
X12958277Y-14788460D02*
X12977325Y-14797984D01*
X12977325Y-14797984D02*
X13015420Y-14797984D01*
X13015420Y-14797984D02*
X13034468Y-14788460D01*
X13034468Y-14788460D02*
X13043991Y-14778936D01*
X13043991Y-14778936D02*
X13053515Y-14759888D01*
X13053515Y-14759888D02*
X13053515Y-14712269D01*
X13053515Y-14712269D02*
X13043991Y-14693222D01*
X13043991Y-14693222D02*
X13034468Y-14683698D01*
X13034468Y-14683698D02*
X13015420Y-14674174D01*
X13015420Y-14674174D02*
X12977325Y-14674174D01*
X12977325Y-14674174D02*
X12958277Y-14683698D01*
X12958277Y-14683698D02*
X12948753Y-14693222D01*
X12948753Y-14693222D02*
X12939229Y-14712269D01*
X13291610Y-14797984D02*
X13291610Y-14597984D01*
X13377325Y-14797984D02*
X13377325Y-14693222D01*
X13377325Y-14693222D02*
X13367801Y-14674174D01*
X13367801Y-14674174D02*
X13348753Y-14664650D01*
X13348753Y-14664650D02*
X13320182Y-14664650D01*
X13320182Y-14664650D02*
X13301134Y-14674174D01*
X13301134Y-14674174D02*
X13291610Y-14683698D01*
X13501134Y-14797984D02*
X13482087Y-14788460D01*
X13482087Y-14788460D02*
X13472563Y-14778936D01*
X13472563Y-14778936D02*
X13463039Y-14759888D01*
X13463039Y-14759888D02*
X13463039Y-14702746D01*
X13463039Y-14702746D02*
X13472563Y-14683698D01*
X13472563Y-14683698D02*
X13482087Y-14674174D01*
X13482087Y-14674174D02*
X13501134Y-14664650D01*
X13501134Y-14664650D02*
X13529706Y-14664650D01*
X13529706Y-14664650D02*
X13548753Y-14674174D01*
X13548753Y-14674174D02*
X13558277Y-14683698D01*
X13558277Y-14683698D02*
X13567801Y-14702746D01*
X13567801Y-14702746D02*
X13567801Y-14759888D01*
X13567801Y-14759888D02*
X13558277Y-14778936D01*
X13558277Y-14778936D02*
X13548753Y-14788460D01*
X13548753Y-14788460D02*
X13529706Y-14797984D01*
X13529706Y-14797984D02*
X13501134Y-14797984D01*
X13682087Y-14797984D02*
X13663039Y-14788460D01*
X13663039Y-14788460D02*
X13653515Y-14769412D01*
X13653515Y-14769412D02*
X13653515Y-14597984D01*
X13834468Y-14788460D02*
X13815420Y-14797984D01*
X13815420Y-14797984D02*
X13777325Y-14797984D01*
X13777325Y-14797984D02*
X13758277Y-14788460D01*
X13758277Y-14788460D02*
X13748753Y-14769412D01*
X13748753Y-14769412D02*
X13748753Y-14693222D01*
X13748753Y-14693222D02*
X13758277Y-14674174D01*
X13758277Y-14674174D02*
X13777325Y-14664650D01*
X13777325Y-14664650D02*
X13815420Y-14664650D01*
X13815420Y-14664650D02*
X13834468Y-14674174D01*
X13834468Y-14674174D02*
X13843991Y-14693222D01*
X13843991Y-14693222D02*
X13843991Y-14712269D01*
X13843991Y-14712269D02*
X13748753Y-14731317D01*
X13920182Y-14788460D02*
X13939230Y-14797984D01*
X13939230Y-14797984D02*
X13977325Y-14797984D01*
X13977325Y-14797984D02*
X13996372Y-14788460D01*
X13996372Y-14788460D02*
X14005896Y-14769412D01*
X14005896Y-14769412D02*
X14005896Y-14759888D01*
X14005896Y-14759888D02*
X13996372Y-14740841D01*
X13996372Y-14740841D02*
X13977325Y-14731317D01*
X13977325Y-14731317D02*
X13948753Y-14731317D01*
X13948753Y-14731317D02*
X13929706Y-14721793D01*
X13929706Y-14721793D02*
X13920182Y-14702746D01*
X13920182Y-14702746D02*
X13920182Y-14693222D01*
X13920182Y-14693222D02*
X13929706Y-14674174D01*
X13929706Y-14674174D02*
X13948753Y-14664650D01*
X13948753Y-14664650D02*
X13977325Y-14664650D01*
X13977325Y-14664650D02*
X13996372Y-14674174D01*
X14072563Y-14874174D02*
X14082087Y-14864650D01*
X14082087Y-14864650D02*
X14101134Y-14836079D01*
X14101134Y-14836079D02*
X14110658Y-14817031D01*
X14110658Y-14817031D02*
X14120182Y-14788460D01*
X14120182Y-14788460D02*
X14129706Y-14740841D01*
X14129706Y-14740841D02*
X14129706Y-14702746D01*
X14129706Y-14702746D02*
X14120182Y-14655127D01*
X14120182Y-14655127D02*
X14110658Y-14626555D01*
X14110658Y-14626555D02*
X14101134Y-14607508D01*
X14101134Y-14607508D02*
X14082087Y-14578936D01*
X14082087Y-14578936D02*
X14072563Y-14569412D01*
D13*
X9237500Y-14910500D02*
X9237500Y-15030500D01*
X9177500Y-14970500D02*
X9297500Y-14970500D01*
D11*
X9663039Y-15061984D02*
X9548753Y-15061984D01*
X9605896Y-15061984D02*
X9605896Y-14861984D01*
X9605896Y-14861984D02*
X9586848Y-14890555D01*
X9586848Y-14890555D02*
X9567801Y-14909603D01*
X9567801Y-14909603D02*
X9548753Y-14919127D01*
X9748753Y-15042936D02*
X9758277Y-15052460D01*
X9758277Y-15052460D02*
X9748753Y-15061984D01*
X9748753Y-15061984D02*
X9739229Y-15052460D01*
X9739229Y-15052460D02*
X9748753Y-15042936D01*
X9748753Y-15042936D02*
X9748753Y-15061984D01*
X9834467Y-14881031D02*
X9843991Y-14871508D01*
X9843991Y-14871508D02*
X9863039Y-14861984D01*
X9863039Y-14861984D02*
X9910658Y-14861984D01*
X9910658Y-14861984D02*
X9929705Y-14871508D01*
X9929705Y-14871508D02*
X9939229Y-14881031D01*
X9939229Y-14881031D02*
X9948753Y-14900079D01*
X9948753Y-14900079D02*
X9948753Y-14919127D01*
X9948753Y-14919127D02*
X9939229Y-14947698D01*
X9939229Y-14947698D02*
X9824944Y-15061984D01*
X9824944Y-15061984D02*
X9948753Y-15061984D01*
X10072563Y-14861984D02*
X10091610Y-14861984D01*
X10091610Y-14861984D02*
X10110658Y-14871508D01*
X10110658Y-14871508D02*
X10120182Y-14881031D01*
X10120182Y-14881031D02*
X10129705Y-14900079D01*
X10129705Y-14900079D02*
X10139229Y-14938174D01*
X10139229Y-14938174D02*
X10139229Y-14985793D01*
X10139229Y-14985793D02*
X10129705Y-15023888D01*
X10129705Y-15023888D02*
X10120182Y-15042936D01*
X10120182Y-15042936D02*
X10110658Y-15052460D01*
X10110658Y-15052460D02*
X10091610Y-15061984D01*
X10091610Y-15061984D02*
X10072563Y-15061984D01*
X10072563Y-15061984D02*
X10053515Y-15052460D01*
X10053515Y-15052460D02*
X10043991Y-15042936D01*
X10043991Y-15042936D02*
X10034467Y-15023888D01*
X10034467Y-15023888D02*
X10024944Y-14985793D01*
X10024944Y-14985793D02*
X10024944Y-14938174D01*
X10024944Y-14938174D02*
X10034467Y-14900079D01*
X10034467Y-14900079D02*
X10043991Y-14881031D01*
X10043991Y-14881031D02*
X10053515Y-14871508D01*
X10053515Y-14871508D02*
X10072563Y-14861984D01*
X10263039Y-14861984D02*
X10282086Y-14861984D01*
X10282086Y-14861984D02*
X10301134Y-14871508D01*
X10301134Y-14871508D02*
X10310658Y-14881031D01*
X10310658Y-14881031D02*
X10320182Y-14900079D01*
X10320182Y-14900079D02*
X10329705Y-14938174D01*
X10329705Y-14938174D02*
X10329705Y-14985793D01*
X10329705Y-14985793D02*
X10320182Y-15023888D01*
X10320182Y-15023888D02*
X10310658Y-15042936D01*
X10310658Y-15042936D02*
X10301134Y-15052460D01*
X10301134Y-15052460D02*
X10282086Y-15061984D01*
X10282086Y-15061984D02*
X10263039Y-15061984D01*
X10263039Y-15061984D02*
X10243991Y-15052460D01*
X10243991Y-15052460D02*
X10234467Y-15042936D01*
X10234467Y-15042936D02*
X10224944Y-15023888D01*
X10224944Y-15023888D02*
X10215420Y-14985793D01*
X10215420Y-14985793D02*
X10215420Y-14938174D01*
X10215420Y-14938174D02*
X10224944Y-14900079D01*
X10224944Y-14900079D02*
X10234467Y-14881031D01*
X10234467Y-14881031D02*
X10243991Y-14871508D01*
X10243991Y-14871508D02*
X10263039Y-14861984D01*
X10415420Y-15061984D02*
X10415420Y-14928650D01*
X10415420Y-14947698D02*
X10424944Y-14938174D01*
X10424944Y-14938174D02*
X10443991Y-14928650D01*
X10443991Y-14928650D02*
X10472563Y-14928650D01*
X10472563Y-14928650D02*
X10491610Y-14938174D01*
X10491610Y-14938174D02*
X10501134Y-14957222D01*
X10501134Y-14957222D02*
X10501134Y-15061984D01*
X10501134Y-14957222D02*
X10510658Y-14938174D01*
X10510658Y-14938174D02*
X10529705Y-14928650D01*
X10529705Y-14928650D02*
X10558277Y-14928650D01*
X10558277Y-14928650D02*
X10577325Y-14938174D01*
X10577325Y-14938174D02*
X10586848Y-14957222D01*
X10586848Y-14957222D02*
X10586848Y-15061984D01*
X10682086Y-15061984D02*
X10682086Y-14928650D01*
X10682086Y-14947698D02*
X10691610Y-14938174D01*
X10691610Y-14938174D02*
X10710658Y-14928650D01*
X10710658Y-14928650D02*
X10739229Y-14928650D01*
X10739229Y-14928650D02*
X10758277Y-14938174D01*
X10758277Y-14938174D02*
X10767801Y-14957222D01*
X10767801Y-14957222D02*
X10767801Y-15061984D01*
X10767801Y-14957222D02*
X10777325Y-14938174D01*
X10777325Y-14938174D02*
X10796372Y-14928650D01*
X10796372Y-14928650D02*
X10824944Y-14928650D01*
X10824944Y-14928650D02*
X10843991Y-14938174D01*
X10843991Y-14938174D02*
X10853515Y-14957222D01*
X10853515Y-14957222D02*
X10853515Y-15061984D01*
X11243991Y-14852460D02*
X11072563Y-15109603D01*
X11501134Y-14861984D02*
X11520182Y-14861984D01*
X11520182Y-14861984D02*
X11539229Y-14871508D01*
X11539229Y-14871508D02*
X11548753Y-14881031D01*
X11548753Y-14881031D02*
X11558277Y-14900079D01*
X11558277Y-14900079D02*
X11567801Y-14938174D01*
X11567801Y-14938174D02*
X11567801Y-14985793D01*
X11567801Y-14985793D02*
X11558277Y-15023888D01*
X11558277Y-15023888D02*
X11548753Y-15042936D01*
X11548753Y-15042936D02*
X11539229Y-15052460D01*
X11539229Y-15052460D02*
X11520182Y-15061984D01*
X11520182Y-15061984D02*
X11501134Y-15061984D01*
X11501134Y-15061984D02*
X11482086Y-15052460D01*
X11482086Y-15052460D02*
X11472563Y-15042936D01*
X11472563Y-15042936D02*
X11463039Y-15023888D01*
X11463039Y-15023888D02*
X11453515Y-14985793D01*
X11453515Y-14985793D02*
X11453515Y-14938174D01*
X11453515Y-14938174D02*
X11463039Y-14900079D01*
X11463039Y-14900079D02*
X11472563Y-14881031D01*
X11472563Y-14881031D02*
X11482086Y-14871508D01*
X11482086Y-14871508D02*
X11501134Y-14861984D01*
X11653515Y-15042936D02*
X11663039Y-15052460D01*
X11663039Y-15052460D02*
X11653515Y-15061984D01*
X11653515Y-15061984D02*
X11643991Y-15052460D01*
X11643991Y-15052460D02*
X11653515Y-15042936D01*
X11653515Y-15042936D02*
X11653515Y-15061984D01*
X11786848Y-14861984D02*
X11805896Y-14861984D01*
X11805896Y-14861984D02*
X11824944Y-14871508D01*
X11824944Y-14871508D02*
X11834467Y-14881031D01*
X11834467Y-14881031D02*
X11843991Y-14900079D01*
X11843991Y-14900079D02*
X11853515Y-14938174D01*
X11853515Y-14938174D02*
X11853515Y-14985793D01*
X11853515Y-14985793D02*
X11843991Y-15023888D01*
X11843991Y-15023888D02*
X11834467Y-15042936D01*
X11834467Y-15042936D02*
X11824944Y-15052460D01*
X11824944Y-15052460D02*
X11805896Y-15061984D01*
X11805896Y-15061984D02*
X11786848Y-15061984D01*
X11786848Y-15061984D02*
X11767801Y-15052460D01*
X11767801Y-15052460D02*
X11758277Y-15042936D01*
X11758277Y-15042936D02*
X11748753Y-15023888D01*
X11748753Y-15023888D02*
X11739229Y-14985793D01*
X11739229Y-14985793D02*
X11739229Y-14938174D01*
X11739229Y-14938174D02*
X11748753Y-14900079D01*
X11748753Y-14900079D02*
X11758277Y-14881031D01*
X11758277Y-14881031D02*
X11767801Y-14871508D01*
X11767801Y-14871508D02*
X11786848Y-14861984D01*
X12024944Y-14928650D02*
X12024944Y-15061984D01*
X11977325Y-14852460D02*
X11929706Y-14995317D01*
X11929706Y-14995317D02*
X12053515Y-14995317D01*
X12110658Y-14861984D02*
X12243991Y-14861984D01*
X12243991Y-14861984D02*
X12158277Y-15061984D01*
X12310658Y-14881031D02*
X12320182Y-14871508D01*
X12320182Y-14871508D02*
X12339229Y-14861984D01*
X12339229Y-14861984D02*
X12386848Y-14861984D01*
X12386848Y-14861984D02*
X12405896Y-14871508D01*
X12405896Y-14871508D02*
X12415420Y-14881031D01*
X12415420Y-14881031D02*
X12424944Y-14900079D01*
X12424944Y-14900079D02*
X12424944Y-14919127D01*
X12424944Y-14919127D02*
X12415420Y-14947698D01*
X12415420Y-14947698D02*
X12301134Y-15061984D01*
X12301134Y-15061984D02*
X12424944Y-15061984D01*
X12501134Y-14861984D02*
X12501134Y-14900079D01*
X12577325Y-14861984D02*
X12577325Y-14900079D01*
X12872563Y-15138174D02*
X12863039Y-15128650D01*
X12863039Y-15128650D02*
X12843991Y-15100079D01*
X12843991Y-15100079D02*
X12834468Y-15081031D01*
X12834468Y-15081031D02*
X12824944Y-15052460D01*
X12824944Y-15052460D02*
X12815420Y-15004841D01*
X12815420Y-15004841D02*
X12815420Y-14966746D01*
X12815420Y-14966746D02*
X12824944Y-14919127D01*
X12824944Y-14919127D02*
X12834468Y-14890555D01*
X12834468Y-14890555D02*
X12843991Y-14871508D01*
X12843991Y-14871508D02*
X12863039Y-14842936D01*
X12863039Y-14842936D02*
X12872563Y-14833412D01*
X13053515Y-15061984D02*
X12939229Y-15061984D01*
X12996372Y-15061984D02*
X12996372Y-14861984D01*
X12996372Y-14861984D02*
X12977325Y-14890555D01*
X12977325Y-14890555D02*
X12958277Y-14909603D01*
X12958277Y-14909603D02*
X12939229Y-14919127D01*
X13224944Y-14928650D02*
X13224944Y-15061984D01*
X13177325Y-14852460D02*
X13129706Y-14995317D01*
X13129706Y-14995317D02*
X13253515Y-14995317D01*
X13482087Y-15061984D02*
X13482087Y-14861984D01*
X13567801Y-15061984D02*
X13567801Y-14957222D01*
X13567801Y-14957222D02*
X13558277Y-14938174D01*
X13558277Y-14938174D02*
X13539230Y-14928650D01*
X13539230Y-14928650D02*
X13510658Y-14928650D01*
X13510658Y-14928650D02*
X13491610Y-14938174D01*
X13491610Y-14938174D02*
X13482087Y-14947698D01*
X13691610Y-15061984D02*
X13672563Y-15052460D01*
X13672563Y-15052460D02*
X13663039Y-15042936D01*
X13663039Y-15042936D02*
X13653515Y-15023888D01*
X13653515Y-15023888D02*
X13653515Y-14966746D01*
X13653515Y-14966746D02*
X13663039Y-14947698D01*
X13663039Y-14947698D02*
X13672563Y-14938174D01*
X13672563Y-14938174D02*
X13691610Y-14928650D01*
X13691610Y-14928650D02*
X13720182Y-14928650D01*
X13720182Y-14928650D02*
X13739230Y-14938174D01*
X13739230Y-14938174D02*
X13748753Y-14947698D01*
X13748753Y-14947698D02*
X13758277Y-14966746D01*
X13758277Y-14966746D02*
X13758277Y-15023888D01*
X13758277Y-15023888D02*
X13748753Y-15042936D01*
X13748753Y-15042936D02*
X13739230Y-15052460D01*
X13739230Y-15052460D02*
X13720182Y-15061984D01*
X13720182Y-15061984D02*
X13691610Y-15061984D01*
X13872563Y-15061984D02*
X13853515Y-15052460D01*
X13853515Y-15052460D02*
X13843991Y-15033412D01*
X13843991Y-15033412D02*
X13843991Y-14861984D01*
X14024944Y-15052460D02*
X14005896Y-15061984D01*
X14005896Y-15061984D02*
X13967801Y-15061984D01*
X13967801Y-15061984D02*
X13948753Y-15052460D01*
X13948753Y-15052460D02*
X13939230Y-15033412D01*
X13939230Y-15033412D02*
X13939230Y-14957222D01*
X13939230Y-14957222D02*
X13948753Y-14938174D01*
X13948753Y-14938174D02*
X13967801Y-14928650D01*
X13967801Y-14928650D02*
X14005896Y-14928650D01*
X14005896Y-14928650D02*
X14024944Y-14938174D01*
X14024944Y-14938174D02*
X14034468Y-14957222D01*
X14034468Y-14957222D02*
X14034468Y-14976269D01*
X14034468Y-14976269D02*
X13939230Y-14995317D01*
X14110658Y-15052460D02*
X14129706Y-15061984D01*
X14129706Y-15061984D02*
X14167801Y-15061984D01*
X14167801Y-15061984D02*
X14186849Y-15052460D01*
X14186849Y-15052460D02*
X14196372Y-15033412D01*
X14196372Y-15033412D02*
X14196372Y-15023888D01*
X14196372Y-15023888D02*
X14186849Y-15004841D01*
X14186849Y-15004841D02*
X14167801Y-14995317D01*
X14167801Y-14995317D02*
X14139230Y-14995317D01*
X14139230Y-14995317D02*
X14120182Y-14985793D01*
X14120182Y-14985793D02*
X14110658Y-14966746D01*
X14110658Y-14966746D02*
X14110658Y-14957222D01*
X14110658Y-14957222D02*
X14120182Y-14938174D01*
X14120182Y-14938174D02*
X14139230Y-14928650D01*
X14139230Y-14928650D02*
X14167801Y-14928650D01*
X14167801Y-14928650D02*
X14186849Y-14938174D01*
X14263039Y-15138174D02*
X14272563Y-15128650D01*
X14272563Y-15128650D02*
X14291611Y-15100079D01*
X14291611Y-15100079D02*
X14301134Y-15081031D01*
X14301134Y-15081031D02*
X14310658Y-15052460D01*
X14310658Y-15052460D02*
X14320182Y-15004841D01*
X14320182Y-15004841D02*
X14320182Y-14966746D01*
X14320182Y-14966746D02*
X14310658Y-14919127D01*
X14310658Y-14919127D02*
X14301134Y-14890555D01*
X14301134Y-14890555D02*
X14291611Y-14871508D01*
X14291611Y-14871508D02*
X14272563Y-14842936D01*
X14272563Y-14842936D02*
X14263039Y-14833412D01*
D14*
X9275182Y-15288382D02*
X9275182Y-15180618D01*
X9167418Y-15180618D01*
X9167418Y-15288382D01*
X9275182Y-15288382D01*
D11*
X9663039Y-15325984D02*
X9548753Y-15325984D01*
X9605896Y-15325984D02*
X9605896Y-15125984D01*
X9605896Y-15125984D02*
X9586848Y-15154555D01*
X9586848Y-15154555D02*
X9567801Y-15173603D01*
X9567801Y-15173603D02*
X9548753Y-15183127D01*
X9748753Y-15306936D02*
X9758277Y-15316460D01*
X9758277Y-15316460D02*
X9748753Y-15325984D01*
X9748753Y-15325984D02*
X9739229Y-15316460D01*
X9739229Y-15316460D02*
X9748753Y-15306936D01*
X9748753Y-15306936D02*
X9748753Y-15325984D01*
X9939229Y-15125984D02*
X9843991Y-15125984D01*
X9843991Y-15125984D02*
X9834467Y-15221222D01*
X9834467Y-15221222D02*
X9843991Y-15211698D01*
X9843991Y-15211698D02*
X9863039Y-15202174D01*
X9863039Y-15202174D02*
X9910658Y-15202174D01*
X9910658Y-15202174D02*
X9929705Y-15211698D01*
X9929705Y-15211698D02*
X9939229Y-15221222D01*
X9939229Y-15221222D02*
X9948753Y-15240269D01*
X9948753Y-15240269D02*
X9948753Y-15287888D01*
X9948753Y-15287888D02*
X9939229Y-15306936D01*
X9939229Y-15306936D02*
X9929705Y-15316460D01*
X9929705Y-15316460D02*
X9910658Y-15325984D01*
X9910658Y-15325984D02*
X9863039Y-15325984D01*
X9863039Y-15325984D02*
X9843991Y-15316460D01*
X9843991Y-15316460D02*
X9834467Y-15306936D01*
X10024944Y-15145031D02*
X10034467Y-15135508D01*
X10034467Y-15135508D02*
X10053515Y-15125984D01*
X10053515Y-15125984D02*
X10101134Y-15125984D01*
X10101134Y-15125984D02*
X10120182Y-15135508D01*
X10120182Y-15135508D02*
X10129705Y-15145031D01*
X10129705Y-15145031D02*
X10139229Y-15164079D01*
X10139229Y-15164079D02*
X10139229Y-15183127D01*
X10139229Y-15183127D02*
X10129705Y-15211698D01*
X10129705Y-15211698D02*
X10015420Y-15325984D01*
X10015420Y-15325984D02*
X10139229Y-15325984D01*
X10310658Y-15192650D02*
X10310658Y-15325984D01*
X10263039Y-15116460D02*
X10215420Y-15259317D01*
X10215420Y-15259317D02*
X10339229Y-15259317D01*
X10415420Y-15325984D02*
X10415420Y-15192650D01*
X10415420Y-15211698D02*
X10424944Y-15202174D01*
X10424944Y-15202174D02*
X10443991Y-15192650D01*
X10443991Y-15192650D02*
X10472563Y-15192650D01*
X10472563Y-15192650D02*
X10491610Y-15202174D01*
X10491610Y-15202174D02*
X10501134Y-15221222D01*
X10501134Y-15221222D02*
X10501134Y-15325984D01*
X10501134Y-15221222D02*
X10510658Y-15202174D01*
X10510658Y-15202174D02*
X10529705Y-15192650D01*
X10529705Y-15192650D02*
X10558277Y-15192650D01*
X10558277Y-15192650D02*
X10577325Y-15202174D01*
X10577325Y-15202174D02*
X10586848Y-15221222D01*
X10586848Y-15221222D02*
X10586848Y-15325984D01*
X10682086Y-15325984D02*
X10682086Y-15192650D01*
X10682086Y-15211698D02*
X10691610Y-15202174D01*
X10691610Y-15202174D02*
X10710658Y-15192650D01*
X10710658Y-15192650D02*
X10739229Y-15192650D01*
X10739229Y-15192650D02*
X10758277Y-15202174D01*
X10758277Y-15202174D02*
X10767801Y-15221222D01*
X10767801Y-15221222D02*
X10767801Y-15325984D01*
X10767801Y-15221222D02*
X10777325Y-15202174D01*
X10777325Y-15202174D02*
X10796372Y-15192650D01*
X10796372Y-15192650D02*
X10824944Y-15192650D01*
X10824944Y-15192650D02*
X10843991Y-15202174D01*
X10843991Y-15202174D02*
X10853515Y-15221222D01*
X10853515Y-15221222D02*
X10853515Y-15325984D01*
X11243991Y-15116460D02*
X11072563Y-15373603D01*
X11501134Y-15125984D02*
X11520182Y-15125984D01*
X11520182Y-15125984D02*
X11539229Y-15135508D01*
X11539229Y-15135508D02*
X11548753Y-15145031D01*
X11548753Y-15145031D02*
X11558277Y-15164079D01*
X11558277Y-15164079D02*
X11567801Y-15202174D01*
X11567801Y-15202174D02*
X11567801Y-15249793D01*
X11567801Y-15249793D02*
X11558277Y-15287888D01*
X11558277Y-15287888D02*
X11548753Y-15306936D01*
X11548753Y-15306936D02*
X11539229Y-15316460D01*
X11539229Y-15316460D02*
X11520182Y-15325984D01*
X11520182Y-15325984D02*
X11501134Y-15325984D01*
X11501134Y-15325984D02*
X11482086Y-15316460D01*
X11482086Y-15316460D02*
X11472563Y-15306936D01*
X11472563Y-15306936D02*
X11463039Y-15287888D01*
X11463039Y-15287888D02*
X11453515Y-15249793D01*
X11453515Y-15249793D02*
X11453515Y-15202174D01*
X11453515Y-15202174D02*
X11463039Y-15164079D01*
X11463039Y-15164079D02*
X11472563Y-15145031D01*
X11472563Y-15145031D02*
X11482086Y-15135508D01*
X11482086Y-15135508D02*
X11501134Y-15125984D01*
X11653515Y-15306936D02*
X11663039Y-15316460D01*
X11663039Y-15316460D02*
X11653515Y-15325984D01*
X11653515Y-15325984D02*
X11643991Y-15316460D01*
X11643991Y-15316460D02*
X11653515Y-15306936D01*
X11653515Y-15306936D02*
X11653515Y-15325984D01*
X11786848Y-15125984D02*
X11805896Y-15125984D01*
X11805896Y-15125984D02*
X11824944Y-15135508D01*
X11824944Y-15135508D02*
X11834467Y-15145031D01*
X11834467Y-15145031D02*
X11843991Y-15164079D01*
X11843991Y-15164079D02*
X11853515Y-15202174D01*
X11853515Y-15202174D02*
X11853515Y-15249793D01*
X11853515Y-15249793D02*
X11843991Y-15287888D01*
X11843991Y-15287888D02*
X11834467Y-15306936D01*
X11834467Y-15306936D02*
X11824944Y-15316460D01*
X11824944Y-15316460D02*
X11805896Y-15325984D01*
X11805896Y-15325984D02*
X11786848Y-15325984D01*
X11786848Y-15325984D02*
X11767801Y-15316460D01*
X11767801Y-15316460D02*
X11758277Y-15306936D01*
X11758277Y-15306936D02*
X11748753Y-15287888D01*
X11748753Y-15287888D02*
X11739229Y-15249793D01*
X11739229Y-15249793D02*
X11739229Y-15202174D01*
X11739229Y-15202174D02*
X11748753Y-15164079D01*
X11748753Y-15164079D02*
X11758277Y-15145031D01*
X11758277Y-15145031D02*
X11767801Y-15135508D01*
X11767801Y-15135508D02*
X11786848Y-15125984D01*
X12024944Y-15125984D02*
X11986848Y-15125984D01*
X11986848Y-15125984D02*
X11967801Y-15135508D01*
X11967801Y-15135508D02*
X11958277Y-15145031D01*
X11958277Y-15145031D02*
X11939229Y-15173603D01*
X11939229Y-15173603D02*
X11929706Y-15211698D01*
X11929706Y-15211698D02*
X11929706Y-15287888D01*
X11929706Y-15287888D02*
X11939229Y-15306936D01*
X11939229Y-15306936D02*
X11948753Y-15316460D01*
X11948753Y-15316460D02*
X11967801Y-15325984D01*
X11967801Y-15325984D02*
X12005896Y-15325984D01*
X12005896Y-15325984D02*
X12024944Y-15316460D01*
X12024944Y-15316460D02*
X12034467Y-15306936D01*
X12034467Y-15306936D02*
X12043991Y-15287888D01*
X12043991Y-15287888D02*
X12043991Y-15240269D01*
X12043991Y-15240269D02*
X12034467Y-15221222D01*
X12034467Y-15221222D02*
X12024944Y-15211698D01*
X12024944Y-15211698D02*
X12005896Y-15202174D01*
X12005896Y-15202174D02*
X11967801Y-15202174D01*
X11967801Y-15202174D02*
X11948753Y-15211698D01*
X11948753Y-15211698D02*
X11939229Y-15221222D01*
X11939229Y-15221222D02*
X11929706Y-15240269D01*
X12167801Y-15125984D02*
X12186848Y-15125984D01*
X12186848Y-15125984D02*
X12205896Y-15135508D01*
X12205896Y-15135508D02*
X12215420Y-15145031D01*
X12215420Y-15145031D02*
X12224944Y-15164079D01*
X12224944Y-15164079D02*
X12234467Y-15202174D01*
X12234467Y-15202174D02*
X12234467Y-15249793D01*
X12234467Y-15249793D02*
X12224944Y-15287888D01*
X12224944Y-15287888D02*
X12215420Y-15306936D01*
X12215420Y-15306936D02*
X12205896Y-15316460D01*
X12205896Y-15316460D02*
X12186848Y-15325984D01*
X12186848Y-15325984D02*
X12167801Y-15325984D01*
X12167801Y-15325984D02*
X12148753Y-15316460D01*
X12148753Y-15316460D02*
X12139229Y-15306936D01*
X12139229Y-15306936D02*
X12129706Y-15287888D01*
X12129706Y-15287888D02*
X12120182Y-15249793D01*
X12120182Y-15249793D02*
X12120182Y-15202174D01*
X12120182Y-15202174D02*
X12129706Y-15164079D01*
X12129706Y-15164079D02*
X12139229Y-15145031D01*
X12139229Y-15145031D02*
X12148753Y-15135508D01*
X12148753Y-15135508D02*
X12167801Y-15125984D01*
X12358277Y-15125984D02*
X12377325Y-15125984D01*
X12377325Y-15125984D02*
X12396372Y-15135508D01*
X12396372Y-15135508D02*
X12405896Y-15145031D01*
X12405896Y-15145031D02*
X12415420Y-15164079D01*
X12415420Y-15164079D02*
X12424944Y-15202174D01*
X12424944Y-15202174D02*
X12424944Y-15249793D01*
X12424944Y-15249793D02*
X12415420Y-15287888D01*
X12415420Y-15287888D02*
X12405896Y-15306936D01*
X12405896Y-15306936D02*
X12396372Y-15316460D01*
X12396372Y-15316460D02*
X12377325Y-15325984D01*
X12377325Y-15325984D02*
X12358277Y-15325984D01*
X12358277Y-15325984D02*
X12339229Y-15316460D01*
X12339229Y-15316460D02*
X12329706Y-15306936D01*
X12329706Y-15306936D02*
X12320182Y-15287888D01*
X12320182Y-15287888D02*
X12310658Y-15249793D01*
X12310658Y-15249793D02*
X12310658Y-15202174D01*
X12310658Y-15202174D02*
X12320182Y-15164079D01*
X12320182Y-15164079D02*
X12329706Y-15145031D01*
X12329706Y-15145031D02*
X12339229Y-15135508D01*
X12339229Y-15135508D02*
X12358277Y-15125984D01*
X12501134Y-15125984D02*
X12501134Y-15164079D01*
X12577325Y-15125984D02*
X12577325Y-15164079D01*
X12872563Y-15402174D02*
X12863039Y-15392650D01*
X12863039Y-15392650D02*
X12843991Y-15364079D01*
X12843991Y-15364079D02*
X12834468Y-15345031D01*
X12834468Y-15345031D02*
X12824944Y-15316460D01*
X12824944Y-15316460D02*
X12815420Y-15268841D01*
X12815420Y-15268841D02*
X12815420Y-15230746D01*
X12815420Y-15230746D02*
X12824944Y-15183127D01*
X12824944Y-15183127D02*
X12834468Y-15154555D01*
X12834468Y-15154555D02*
X12843991Y-15135508D01*
X12843991Y-15135508D02*
X12863039Y-15106936D01*
X12863039Y-15106936D02*
X12872563Y-15097412D01*
X12939229Y-15145031D02*
X12948753Y-15135508D01*
X12948753Y-15135508D02*
X12967801Y-15125984D01*
X12967801Y-15125984D02*
X13015420Y-15125984D01*
X13015420Y-15125984D02*
X13034468Y-15135508D01*
X13034468Y-15135508D02*
X13043991Y-15145031D01*
X13043991Y-15145031D02*
X13053515Y-15164079D01*
X13053515Y-15164079D02*
X13053515Y-15183127D01*
X13053515Y-15183127D02*
X13043991Y-15211698D01*
X13043991Y-15211698D02*
X12929706Y-15325984D01*
X12929706Y-15325984D02*
X13053515Y-15325984D01*
X13224944Y-15192650D02*
X13224944Y-15325984D01*
X13177325Y-15116460D02*
X13129706Y-15259317D01*
X13129706Y-15259317D02*
X13253515Y-15259317D01*
X13482087Y-15325984D02*
X13482087Y-15125984D01*
X13567801Y-15325984D02*
X13567801Y-15221222D01*
X13567801Y-15221222D02*
X13558277Y-15202174D01*
X13558277Y-15202174D02*
X13539230Y-15192650D01*
X13539230Y-15192650D02*
X13510658Y-15192650D01*
X13510658Y-15192650D02*
X13491610Y-15202174D01*
X13491610Y-15202174D02*
X13482087Y-15211698D01*
X13691610Y-15325984D02*
X13672563Y-15316460D01*
X13672563Y-15316460D02*
X13663039Y-15306936D01*
X13663039Y-15306936D02*
X13653515Y-15287888D01*
X13653515Y-15287888D02*
X13653515Y-15230746D01*
X13653515Y-15230746D02*
X13663039Y-15211698D01*
X13663039Y-15211698D02*
X13672563Y-15202174D01*
X13672563Y-15202174D02*
X13691610Y-15192650D01*
X13691610Y-15192650D02*
X13720182Y-15192650D01*
X13720182Y-15192650D02*
X13739230Y-15202174D01*
X13739230Y-15202174D02*
X13748753Y-15211698D01*
X13748753Y-15211698D02*
X13758277Y-15230746D01*
X13758277Y-15230746D02*
X13758277Y-15287888D01*
X13758277Y-15287888D02*
X13748753Y-15306936D01*
X13748753Y-15306936D02*
X13739230Y-15316460D01*
X13739230Y-15316460D02*
X13720182Y-15325984D01*
X13720182Y-15325984D02*
X13691610Y-15325984D01*
X13872563Y-15325984D02*
X13853515Y-15316460D01*
X13853515Y-15316460D02*
X13843991Y-15297412D01*
X13843991Y-15297412D02*
X13843991Y-15125984D01*
X14024944Y-15316460D02*
X14005896Y-15325984D01*
X14005896Y-15325984D02*
X13967801Y-15325984D01*
X13967801Y-15325984D02*
X13948753Y-15316460D01*
X13948753Y-15316460D02*
X13939230Y-15297412D01*
X13939230Y-15297412D02*
X13939230Y-15221222D01*
X13939230Y-15221222D02*
X13948753Y-15202174D01*
X13948753Y-15202174D02*
X13967801Y-15192650D01*
X13967801Y-15192650D02*
X14005896Y-15192650D01*
X14005896Y-15192650D02*
X14024944Y-15202174D01*
X14024944Y-15202174D02*
X14034468Y-15221222D01*
X14034468Y-15221222D02*
X14034468Y-15240269D01*
X14034468Y-15240269D02*
X13939230Y-15259317D01*
X14110658Y-15316460D02*
X14129706Y-15325984D01*
X14129706Y-15325984D02*
X14167801Y-15325984D01*
X14167801Y-15325984D02*
X14186849Y-15316460D01*
X14186849Y-15316460D02*
X14196372Y-15297412D01*
X14196372Y-15297412D02*
X14196372Y-15287888D01*
X14196372Y-15287888D02*
X14186849Y-15268841D01*
X14186849Y-15268841D02*
X14167801Y-15259317D01*
X14167801Y-15259317D02*
X14139230Y-15259317D01*
X14139230Y-15259317D02*
X14120182Y-15249793D01*
X14120182Y-15249793D02*
X14110658Y-15230746D01*
X14110658Y-15230746D02*
X14110658Y-15221222D01*
X14110658Y-15221222D02*
X14120182Y-15202174D01*
X14120182Y-15202174D02*
X14139230Y-15192650D01*
X14139230Y-15192650D02*
X14167801Y-15192650D01*
X14167801Y-15192650D02*
X14186849Y-15202174D01*
X14263039Y-15402174D02*
X14272563Y-15392650D01*
X14272563Y-15392650D02*
X14291611Y-15364079D01*
X14291611Y-15364079D02*
X14301134Y-15345031D01*
X14301134Y-15345031D02*
X14310658Y-15316460D01*
X14310658Y-15316460D02*
X14320182Y-15268841D01*
X14320182Y-15268841D02*
X14320182Y-15230746D01*
X14320182Y-15230746D02*
X14310658Y-15183127D01*
X14310658Y-15183127D02*
X14301134Y-15154555D01*
X14301134Y-15154555D02*
X14291611Y-15135508D01*
X14291611Y-15135508D02*
X14272563Y-15106936D01*
X14272563Y-15106936D02*
X14263039Y-15097412D01*
X9197500Y-15606900D02*
X9297500Y-15506900D01*
X9197500Y-15406900D01*
X9097500Y-15506900D01*
X9197500Y-15606900D01*
X9548753Y-15417431D02*
X9558277Y-15407908D01*
X9558277Y-15407908D02*
X9577324Y-15398384D01*
X9577324Y-15398384D02*
X9624944Y-15398384D01*
X9624944Y-15398384D02*
X9643991Y-15407908D01*
X9643991Y-15407908D02*
X9653515Y-15417431D01*
X9653515Y-15417431D02*
X9663039Y-15436479D01*
X9663039Y-15436479D02*
X9663039Y-15455527D01*
X9663039Y-15455527D02*
X9653515Y-15484098D01*
X9653515Y-15484098D02*
X9539229Y-15598384D01*
X9539229Y-15598384D02*
X9663039Y-15598384D01*
X9748753Y-15579336D02*
X9758277Y-15588860D01*
X9758277Y-15588860D02*
X9748753Y-15598384D01*
X9748753Y-15598384D02*
X9739229Y-15588860D01*
X9739229Y-15588860D02*
X9748753Y-15579336D01*
X9748753Y-15579336D02*
X9748753Y-15598384D01*
X9834467Y-15417431D02*
X9843991Y-15407908D01*
X9843991Y-15407908D02*
X9863039Y-15398384D01*
X9863039Y-15398384D02*
X9910658Y-15398384D01*
X9910658Y-15398384D02*
X9929705Y-15407908D01*
X9929705Y-15407908D02*
X9939229Y-15417431D01*
X9939229Y-15417431D02*
X9948753Y-15436479D01*
X9948753Y-15436479D02*
X9948753Y-15455527D01*
X9948753Y-15455527D02*
X9939229Y-15484098D01*
X9939229Y-15484098D02*
X9824944Y-15598384D01*
X9824944Y-15598384D02*
X9948753Y-15598384D01*
X10072563Y-15398384D02*
X10091610Y-15398384D01*
X10091610Y-15398384D02*
X10110658Y-15407908D01*
X10110658Y-15407908D02*
X10120182Y-15417431D01*
X10120182Y-15417431D02*
X10129705Y-15436479D01*
X10129705Y-15436479D02*
X10139229Y-15474574D01*
X10139229Y-15474574D02*
X10139229Y-15522193D01*
X10139229Y-15522193D02*
X10129705Y-15560288D01*
X10129705Y-15560288D02*
X10120182Y-15579336D01*
X10120182Y-15579336D02*
X10110658Y-15588860D01*
X10110658Y-15588860D02*
X10091610Y-15598384D01*
X10091610Y-15598384D02*
X10072563Y-15598384D01*
X10072563Y-15598384D02*
X10053515Y-15588860D01*
X10053515Y-15588860D02*
X10043991Y-15579336D01*
X10043991Y-15579336D02*
X10034467Y-15560288D01*
X10034467Y-15560288D02*
X10024944Y-15522193D01*
X10024944Y-15522193D02*
X10024944Y-15474574D01*
X10024944Y-15474574D02*
X10034467Y-15436479D01*
X10034467Y-15436479D02*
X10043991Y-15417431D01*
X10043991Y-15417431D02*
X10053515Y-15407908D01*
X10053515Y-15407908D02*
X10072563Y-15398384D01*
X10263039Y-15398384D02*
X10282086Y-15398384D01*
X10282086Y-15398384D02*
X10301134Y-15407908D01*
X10301134Y-15407908D02*
X10310658Y-15417431D01*
X10310658Y-15417431D02*
X10320182Y-15436479D01*
X10320182Y-15436479D02*
X10329705Y-15474574D01*
X10329705Y-15474574D02*
X10329705Y-15522193D01*
X10329705Y-15522193D02*
X10320182Y-15560288D01*
X10320182Y-15560288D02*
X10310658Y-15579336D01*
X10310658Y-15579336D02*
X10301134Y-15588860D01*
X10301134Y-15588860D02*
X10282086Y-15598384D01*
X10282086Y-15598384D02*
X10263039Y-15598384D01*
X10263039Y-15598384D02*
X10243991Y-15588860D01*
X10243991Y-15588860D02*
X10234467Y-15579336D01*
X10234467Y-15579336D02*
X10224944Y-15560288D01*
X10224944Y-15560288D02*
X10215420Y-15522193D01*
X10215420Y-15522193D02*
X10215420Y-15474574D01*
X10215420Y-15474574D02*
X10224944Y-15436479D01*
X10224944Y-15436479D02*
X10234467Y-15417431D01*
X10234467Y-15417431D02*
X10243991Y-15407908D01*
X10243991Y-15407908D02*
X10263039Y-15398384D01*
X10415420Y-15598384D02*
X10415420Y-15465050D01*
X10415420Y-15484098D02*
X10424944Y-15474574D01*
X10424944Y-15474574D02*
X10443991Y-15465050D01*
X10443991Y-15465050D02*
X10472563Y-15465050D01*
X10472563Y-15465050D02*
X10491610Y-15474574D01*
X10491610Y-15474574D02*
X10501134Y-15493622D01*
X10501134Y-15493622D02*
X10501134Y-15598384D01*
X10501134Y-15493622D02*
X10510658Y-15474574D01*
X10510658Y-15474574D02*
X10529705Y-15465050D01*
X10529705Y-15465050D02*
X10558277Y-15465050D01*
X10558277Y-15465050D02*
X10577325Y-15474574D01*
X10577325Y-15474574D02*
X10586848Y-15493622D01*
X10586848Y-15493622D02*
X10586848Y-15598384D01*
X10682086Y-15598384D02*
X10682086Y-15465050D01*
X10682086Y-15484098D02*
X10691610Y-15474574D01*
X10691610Y-15474574D02*
X10710658Y-15465050D01*
X10710658Y-15465050D02*
X10739229Y-15465050D01*
X10739229Y-15465050D02*
X10758277Y-15474574D01*
X10758277Y-15474574D02*
X10767801Y-15493622D01*
X10767801Y-15493622D02*
X10767801Y-15598384D01*
X10767801Y-15493622D02*
X10777325Y-15474574D01*
X10777325Y-15474574D02*
X10796372Y-15465050D01*
X10796372Y-15465050D02*
X10824944Y-15465050D01*
X10824944Y-15465050D02*
X10843991Y-15474574D01*
X10843991Y-15474574D02*
X10853515Y-15493622D01*
X10853515Y-15493622D02*
X10853515Y-15598384D01*
X11243991Y-15388860D02*
X11072563Y-15646003D01*
X11501134Y-15398384D02*
X11520182Y-15398384D01*
X11520182Y-15398384D02*
X11539229Y-15407908D01*
X11539229Y-15407908D02*
X11548753Y-15417431D01*
X11548753Y-15417431D02*
X11558277Y-15436479D01*
X11558277Y-15436479D02*
X11567801Y-15474574D01*
X11567801Y-15474574D02*
X11567801Y-15522193D01*
X11567801Y-15522193D02*
X11558277Y-15560288D01*
X11558277Y-15560288D02*
X11548753Y-15579336D01*
X11548753Y-15579336D02*
X11539229Y-15588860D01*
X11539229Y-15588860D02*
X11520182Y-15598384D01*
X11520182Y-15598384D02*
X11501134Y-15598384D01*
X11501134Y-15598384D02*
X11482086Y-15588860D01*
X11482086Y-15588860D02*
X11472563Y-15579336D01*
X11472563Y-15579336D02*
X11463039Y-15560288D01*
X11463039Y-15560288D02*
X11453515Y-15522193D01*
X11453515Y-15522193D02*
X11453515Y-15474574D01*
X11453515Y-15474574D02*
X11463039Y-15436479D01*
X11463039Y-15436479D02*
X11472563Y-15417431D01*
X11472563Y-15417431D02*
X11482086Y-15407908D01*
X11482086Y-15407908D02*
X11501134Y-15398384D01*
X11653515Y-15579336D02*
X11663039Y-15588860D01*
X11663039Y-15588860D02*
X11653515Y-15598384D01*
X11653515Y-15598384D02*
X11643991Y-15588860D01*
X11643991Y-15588860D02*
X11653515Y-15579336D01*
X11653515Y-15579336D02*
X11653515Y-15598384D01*
X11786848Y-15398384D02*
X11805896Y-15398384D01*
X11805896Y-15398384D02*
X11824944Y-15407908D01*
X11824944Y-15407908D02*
X11834467Y-15417431D01*
X11834467Y-15417431D02*
X11843991Y-15436479D01*
X11843991Y-15436479D02*
X11853515Y-15474574D01*
X11853515Y-15474574D02*
X11853515Y-15522193D01*
X11853515Y-15522193D02*
X11843991Y-15560288D01*
X11843991Y-15560288D02*
X11834467Y-15579336D01*
X11834467Y-15579336D02*
X11824944Y-15588860D01*
X11824944Y-15588860D02*
X11805896Y-15598384D01*
X11805896Y-15598384D02*
X11786848Y-15598384D01*
X11786848Y-15598384D02*
X11767801Y-15588860D01*
X11767801Y-15588860D02*
X11758277Y-15579336D01*
X11758277Y-15579336D02*
X11748753Y-15560288D01*
X11748753Y-15560288D02*
X11739229Y-15522193D01*
X11739229Y-15522193D02*
X11739229Y-15474574D01*
X11739229Y-15474574D02*
X11748753Y-15436479D01*
X11748753Y-15436479D02*
X11758277Y-15417431D01*
X11758277Y-15417431D02*
X11767801Y-15407908D01*
X11767801Y-15407908D02*
X11786848Y-15398384D01*
X11967801Y-15484098D02*
X11948753Y-15474574D01*
X11948753Y-15474574D02*
X11939229Y-15465050D01*
X11939229Y-15465050D02*
X11929706Y-15446003D01*
X11929706Y-15446003D02*
X11929706Y-15436479D01*
X11929706Y-15436479D02*
X11939229Y-15417431D01*
X11939229Y-15417431D02*
X11948753Y-15407908D01*
X11948753Y-15407908D02*
X11967801Y-15398384D01*
X11967801Y-15398384D02*
X12005896Y-15398384D01*
X12005896Y-15398384D02*
X12024944Y-15407908D01*
X12024944Y-15407908D02*
X12034467Y-15417431D01*
X12034467Y-15417431D02*
X12043991Y-15436479D01*
X12043991Y-15436479D02*
X12043991Y-15446003D01*
X12043991Y-15446003D02*
X12034467Y-15465050D01*
X12034467Y-15465050D02*
X12024944Y-15474574D01*
X12024944Y-15474574D02*
X12005896Y-15484098D01*
X12005896Y-15484098D02*
X11967801Y-15484098D01*
X11967801Y-15484098D02*
X11948753Y-15493622D01*
X11948753Y-15493622D02*
X11939229Y-15503146D01*
X11939229Y-15503146D02*
X11929706Y-15522193D01*
X11929706Y-15522193D02*
X11929706Y-15560288D01*
X11929706Y-15560288D02*
X11939229Y-15579336D01*
X11939229Y-15579336D02*
X11948753Y-15588860D01*
X11948753Y-15588860D02*
X11967801Y-15598384D01*
X11967801Y-15598384D02*
X12005896Y-15598384D01*
X12005896Y-15598384D02*
X12024944Y-15588860D01*
X12024944Y-15588860D02*
X12034467Y-15579336D01*
X12034467Y-15579336D02*
X12043991Y-15560288D01*
X12043991Y-15560288D02*
X12043991Y-15522193D01*
X12043991Y-15522193D02*
X12034467Y-15503146D01*
X12034467Y-15503146D02*
X12024944Y-15493622D01*
X12024944Y-15493622D02*
X12005896Y-15484098D01*
X12215420Y-15398384D02*
X12177325Y-15398384D01*
X12177325Y-15398384D02*
X12158277Y-15407908D01*
X12158277Y-15407908D02*
X12148753Y-15417431D01*
X12148753Y-15417431D02*
X12129706Y-15446003D01*
X12129706Y-15446003D02*
X12120182Y-15484098D01*
X12120182Y-15484098D02*
X12120182Y-15560288D01*
X12120182Y-15560288D02*
X12129706Y-15579336D01*
X12129706Y-15579336D02*
X12139229Y-15588860D01*
X12139229Y-15588860D02*
X12158277Y-15598384D01*
X12158277Y-15598384D02*
X12196372Y-15598384D01*
X12196372Y-15598384D02*
X12215420Y-15588860D01*
X12215420Y-15588860D02*
X12224944Y-15579336D01*
X12224944Y-15579336D02*
X12234467Y-15560288D01*
X12234467Y-15560288D02*
X12234467Y-15512669D01*
X12234467Y-15512669D02*
X12224944Y-15493622D01*
X12224944Y-15493622D02*
X12215420Y-15484098D01*
X12215420Y-15484098D02*
X12196372Y-15474574D01*
X12196372Y-15474574D02*
X12158277Y-15474574D01*
X12158277Y-15474574D02*
X12139229Y-15484098D01*
X12139229Y-15484098D02*
X12129706Y-15493622D01*
X12129706Y-15493622D02*
X12120182Y-15512669D01*
X12405896Y-15398384D02*
X12367801Y-15398384D01*
X12367801Y-15398384D02*
X12348753Y-15407908D01*
X12348753Y-15407908D02*
X12339229Y-15417431D01*
X12339229Y-15417431D02*
X12320182Y-15446003D01*
X12320182Y-15446003D02*
X12310658Y-15484098D01*
X12310658Y-15484098D02*
X12310658Y-15560288D01*
X12310658Y-15560288D02*
X12320182Y-15579336D01*
X12320182Y-15579336D02*
X12329706Y-15588860D01*
X12329706Y-15588860D02*
X12348753Y-15598384D01*
X12348753Y-15598384D02*
X12386848Y-15598384D01*
X12386848Y-15598384D02*
X12405896Y-15588860D01*
X12405896Y-15588860D02*
X12415420Y-15579336D01*
X12415420Y-15579336D02*
X12424944Y-15560288D01*
X12424944Y-15560288D02*
X12424944Y-15512669D01*
X12424944Y-15512669D02*
X12415420Y-15493622D01*
X12415420Y-15493622D02*
X12405896Y-15484098D01*
X12405896Y-15484098D02*
X12386848Y-15474574D01*
X12386848Y-15474574D02*
X12348753Y-15474574D01*
X12348753Y-15474574D02*
X12329706Y-15484098D01*
X12329706Y-15484098D02*
X12320182Y-15493622D01*
X12320182Y-15493622D02*
X12310658Y-15512669D01*
X12501134Y-15398384D02*
X12501134Y-15436479D01*
X12577325Y-15398384D02*
X12577325Y-15436479D01*
X12872563Y-15674574D02*
X12863039Y-15665050D01*
X12863039Y-15665050D02*
X12843991Y-15636479D01*
X12843991Y-15636479D02*
X12834468Y-15617431D01*
X12834468Y-15617431D02*
X12824944Y-15588860D01*
X12824944Y-15588860D02*
X12815420Y-15541241D01*
X12815420Y-15541241D02*
X12815420Y-15503146D01*
X12815420Y-15503146D02*
X12824944Y-15455527D01*
X12824944Y-15455527D02*
X12834468Y-15426955D01*
X12834468Y-15426955D02*
X12843991Y-15407908D01*
X12843991Y-15407908D02*
X12863039Y-15379336D01*
X12863039Y-15379336D02*
X12872563Y-15369812D01*
X12939229Y-15417431D02*
X12948753Y-15407908D01*
X12948753Y-15407908D02*
X12967801Y-15398384D01*
X12967801Y-15398384D02*
X13015420Y-15398384D01*
X13015420Y-15398384D02*
X13034468Y-15407908D01*
X13034468Y-15407908D02*
X13043991Y-15417431D01*
X13043991Y-15417431D02*
X13053515Y-15436479D01*
X13053515Y-15436479D02*
X13053515Y-15455527D01*
X13053515Y-15455527D02*
X13043991Y-15484098D01*
X13043991Y-15484098D02*
X12929706Y-15598384D01*
X12929706Y-15598384D02*
X13053515Y-15598384D01*
X13291610Y-15598384D02*
X13291610Y-15398384D01*
X13377325Y-15598384D02*
X13377325Y-15493622D01*
X13377325Y-15493622D02*
X13367801Y-15474574D01*
X13367801Y-15474574D02*
X13348753Y-15465050D01*
X13348753Y-15465050D02*
X13320182Y-15465050D01*
X13320182Y-15465050D02*
X13301134Y-15474574D01*
X13301134Y-15474574D02*
X13291610Y-15484098D01*
X13501134Y-15598384D02*
X13482087Y-15588860D01*
X13482087Y-15588860D02*
X13472563Y-15579336D01*
X13472563Y-15579336D02*
X13463039Y-15560288D01*
X13463039Y-15560288D02*
X13463039Y-15503146D01*
X13463039Y-15503146D02*
X13472563Y-15484098D01*
X13472563Y-15484098D02*
X13482087Y-15474574D01*
X13482087Y-15474574D02*
X13501134Y-15465050D01*
X13501134Y-15465050D02*
X13529706Y-15465050D01*
X13529706Y-15465050D02*
X13548753Y-15474574D01*
X13548753Y-15474574D02*
X13558277Y-15484098D01*
X13558277Y-15484098D02*
X13567801Y-15503146D01*
X13567801Y-15503146D02*
X13567801Y-15560288D01*
X13567801Y-15560288D02*
X13558277Y-15579336D01*
X13558277Y-15579336D02*
X13548753Y-15588860D01*
X13548753Y-15588860D02*
X13529706Y-15598384D01*
X13529706Y-15598384D02*
X13501134Y-15598384D01*
X13682087Y-15598384D02*
X13663039Y-15588860D01*
X13663039Y-15588860D02*
X13653515Y-15569812D01*
X13653515Y-15569812D02*
X13653515Y-15398384D01*
X13834468Y-15588860D02*
X13815420Y-15598384D01*
X13815420Y-15598384D02*
X13777325Y-15598384D01*
X13777325Y-15598384D02*
X13758277Y-15588860D01*
X13758277Y-15588860D02*
X13748753Y-15569812D01*
X13748753Y-15569812D02*
X13748753Y-15493622D01*
X13748753Y-15493622D02*
X13758277Y-15474574D01*
X13758277Y-15474574D02*
X13777325Y-15465050D01*
X13777325Y-15465050D02*
X13815420Y-15465050D01*
X13815420Y-15465050D02*
X13834468Y-15474574D01*
X13834468Y-15474574D02*
X13843991Y-15493622D01*
X13843991Y-15493622D02*
X13843991Y-15512669D01*
X13843991Y-15512669D02*
X13748753Y-15531717D01*
X13920182Y-15588860D02*
X13939230Y-15598384D01*
X13939230Y-15598384D02*
X13977325Y-15598384D01*
X13977325Y-15598384D02*
X13996372Y-15588860D01*
X13996372Y-15588860D02*
X14005896Y-15569812D01*
X14005896Y-15569812D02*
X14005896Y-15560288D01*
X14005896Y-15560288D02*
X13996372Y-15541241D01*
X13996372Y-15541241D02*
X13977325Y-15531717D01*
X13977325Y-15531717D02*
X13948753Y-15531717D01*
X13948753Y-15531717D02*
X13929706Y-15522193D01*
X13929706Y-15522193D02*
X13920182Y-15503146D01*
X13920182Y-15503146D02*
X13920182Y-15493622D01*
X13920182Y-15493622D02*
X13929706Y-15474574D01*
X13929706Y-15474574D02*
X13948753Y-15465050D01*
X13948753Y-15465050D02*
X13977325Y-15465050D01*
X13977325Y-15465050D02*
X13996372Y-15474574D01*
X14072563Y-15674574D02*
X14082087Y-15665050D01*
X14082087Y-15665050D02*
X14101134Y-15636479D01*
X14101134Y-15636479D02*
X14110658Y-15617431D01*
X14110658Y-15617431D02*
X14120182Y-15588860D01*
X14120182Y-15588860D02*
X14129706Y-15541241D01*
X14129706Y-15541241D02*
X14129706Y-15503146D01*
X14129706Y-15503146D02*
X14120182Y-15455527D01*
X14120182Y-15455527D02*
X14110658Y-15426955D01*
X14110658Y-15426955D02*
X14101134Y-15407908D01*
X14101134Y-15407908D02*
X14082087Y-15379336D01*
X14082087Y-15379336D02*
X14072563Y-15369812D01*
M02*
