M48
; DRILL file {KiCad 8.0.0} date 2024-03-18T12:56:27-0400
; FORMAT={-:-/ absolute / metric / decimal}
; #@! TF.CreationDate,2024-03-18T12:56:27-04:00
; #@! TF.GenerationSoftware,Kicad,Pcbnew,8.0.0
; #@! TF.FileFunction,Plated,1,2,PTH
FMAT,2
METRIC
; #@! TA.AperFunction,Plated,PTH,ComponentDrill
T1C0.400
; #@! TA.AperFunction,Plated,PTH,ComponentDrill
T2C1.000
; #@! TA.AperFunction,Plated,PTH,ComponentDrill
T3C1.200
; #@! TA.AperFunction,Plated,PTH,ComponentDrill
T4C1.524
; #@! TA.AperFunction,Plated,PTH,ComponentDrill
T5C2.200
%
G90
G05
T1
X94.85Y-40.5
X95.333Y-39.333
X95.333Y-41.667
X96.5Y-38.85
X96.5Y-42.15
X97.667Y-39.333
X97.667Y-41.667
X98.15Y-40.5
X149.85Y-40.5
X150.333Y-39.333
X150.333Y-41.667
X151.5Y-38.85
X151.5Y-42.15
X152.667Y-39.333
X152.667Y-41.667
X153.15Y-40.5
T2
X122.0Y-41.8
X122.0Y-44.34
X122.0Y-46.88
X122.0Y-49.42
X122.0Y-51.96
X122.0Y-54.5
T3
X102.0Y-40.88
X102.0Y-43.42
X102.0Y-45.96
X102.0Y-48.5
X102.0Y-51.04
X102.0Y-53.58
X102.0Y-56.12
X117.24Y-40.88
X117.24Y-43.42
X117.24Y-45.96
X117.24Y-48.5
X117.24Y-51.04
X117.24Y-53.58
X117.24Y-56.12
T4
X101.19Y-85.46
X101.19Y-104.46
X101.19Y-123.46
X101.27Y-66.46
X107.54Y-82.92
X107.54Y-101.92
X107.54Y-120.92
X107.62Y-63.92
X120.19Y-66.46
X120.19Y-85.46
X120.19Y-104.46
X120.19Y-123.46
X126.54Y-63.92
X126.54Y-82.92
X126.54Y-101.92
X126.54Y-120.92
X139.19Y-66.46
X139.19Y-85.46
X139.19Y-104.46
X139.19Y-123.46
X145.54Y-63.92
X145.54Y-82.92
X145.54Y-101.92
X145.54Y-120.92
T5
X96.5Y-40.5
X151.5Y-40.5
M30
