%TF.GenerationSoftware,KiCad,Pcbnew,8.0.0*%
%TF.CreationDate,2024-03-18T12:55:46-04:00*%
%TF.ProjectId,mmp,6d6d702e-6b69-4636-9164-5f7063625858,rev?*%
%TF.SameCoordinates,Original*%
%TF.FileFunction,Soldermask,Bot*%
%TF.FilePolarity,Negative*%
%FSLAX46Y46*%
G04 Gerber Fmt 4.6, Leading zero omitted, Abs format (unit mm)*
G04 Created by KiCad (PCBNEW 8.0.0) date 2024-03-18 12:55:46*
%MOMM*%
%LPD*%
G01*
G04 APERTURE LIST*
G04 Aperture macros list*
%AMRoundRect*
0 Rectangle with rounded corners*
0 $1 Rounding radius*
0 $2 $3 $4 $5 $6 $7 $8 $9 X,Y pos of 4 corners*
0 Add a 4 corners polygon primitive as box body*
4,1,4,$2,$3,$4,$5,$6,$7,$8,$9,$2,$3,0*
0 Add four circle primitives for the rounded corners*
1,1,$1+$1,$2,$3*
1,1,$1+$1,$4,$5*
1,1,$1+$1,$6,$7*
1,1,$1+$1,$8,$9*
0 Add four rect primitives between the rounded corners*
20,1,$1+$1,$2,$3,$4,$5,0*
20,1,$1+$1,$4,$5,$6,$7,0*
20,1,$1+$1,$6,$7,$8,$9,0*
20,1,$1+$1,$8,$9,$2,$3,0*%
G04 Aperture macros list end*
%ADD10C,1.701800*%
%ADD11C,3.987800*%
%ADD12C,2.300000*%
%ADD13RoundRect,0.102000X-0.900000X-0.900000X0.900000X-0.900000X0.900000X0.900000X-0.900000X0.900000X0*%
%ADD14C,2.004000*%
%ADD15C,0.700000*%
%ADD16C,4.400000*%
%ADD17RoundRect,0.250001X-0.462499X-0.624999X0.462499X-0.624999X0.462499X0.624999X-0.462499X0.624999X0*%
%ADD18RoundRect,0.250001X0.462499X0.624999X-0.462499X0.624999X-0.462499X-0.624999X0.462499X-0.624999X0*%
%ADD19R,1.700000X1.700000*%
%ADD20O,1.700000X1.700000*%
G04 APERTURE END LIST*
D10*
%TO.C,SW4*%
X99920000Y-88000000D03*
D11*
X105000000Y-88000000D03*
D10*
X110080000Y-88000000D03*
D12*
X101190000Y-85460000D03*
X107540000Y-82920000D03*
%TD*%
D13*
%TO.C,U1*%
X102000000Y-40880000D03*
D14*
X102000000Y-43420000D03*
X102000000Y-45960000D03*
X102000000Y-48500000D03*
X102000000Y-51040000D03*
X102000000Y-53580000D03*
X102000000Y-56120000D03*
X117240000Y-56120000D03*
X117240000Y-53580000D03*
X117240000Y-51040000D03*
X117240000Y-48500000D03*
X117240000Y-45960000D03*
X117240000Y-43420000D03*
X117240000Y-40880000D03*
%TD*%
D10*
%TO.C,SW10*%
X99920000Y-126000000D03*
D11*
X105000000Y-126000000D03*
D10*
X110080000Y-126000000D03*
D12*
X101190000Y-123460000D03*
X107540000Y-120920000D03*
%TD*%
D15*
%TO.C,REF\u002A\u002A*%
X149850000Y-40500000D03*
X150333274Y-39333274D03*
X150333274Y-41666726D03*
X151500000Y-38850000D03*
D16*
X151500000Y-40500000D03*
D15*
X151500000Y-42150000D03*
X152666726Y-39333274D03*
X152666726Y-41666726D03*
X153150000Y-40500000D03*
%TD*%
D10*
%TO.C,SW2*%
X118920000Y-69000000D03*
D11*
X124000000Y-69000000D03*
D10*
X129080000Y-69000000D03*
D12*
X120190000Y-66460000D03*
X126540000Y-63920000D03*
%TD*%
D10*
%TO.C,SW3*%
X137920000Y-69000000D03*
D11*
X143000000Y-69000000D03*
D10*
X148080000Y-69000000D03*
D12*
X139190000Y-66460000D03*
X145540000Y-63920000D03*
%TD*%
D10*
%TO.C,SW5*%
X118920000Y-88000000D03*
D11*
X124000000Y-88000000D03*
D10*
X129080000Y-88000000D03*
D12*
X120190000Y-85460000D03*
X126540000Y-82920000D03*
%TD*%
D15*
%TO.C,REF\u002A\u002A*%
X94850000Y-40500000D03*
X95333274Y-39333274D03*
X95333274Y-41666726D03*
X96500000Y-38850000D03*
D16*
X96500000Y-40500000D03*
D15*
X96500000Y-42150000D03*
X97666726Y-39333274D03*
X97666726Y-41666726D03*
X98150000Y-40500000D03*
%TD*%
D10*
%TO.C,SW7*%
X99920000Y-107000000D03*
D11*
X105000000Y-107000000D03*
D10*
X110080000Y-107000000D03*
D12*
X101190000Y-104460000D03*
X107540000Y-101920000D03*
%TD*%
D10*
%TO.C,SW1*%
X100000000Y-69000000D03*
D11*
X105080000Y-69000000D03*
D10*
X110160000Y-69000000D03*
D12*
X101270000Y-66460000D03*
X107620000Y-63920000D03*
%TD*%
D10*
%TO.C,SW9*%
X137920000Y-107000000D03*
D11*
X143000000Y-107000000D03*
D10*
X148080000Y-107000000D03*
D12*
X139190000Y-104460000D03*
X145540000Y-101920000D03*
%TD*%
D10*
%TO.C,SW12*%
X137920000Y-126000000D03*
D11*
X143000000Y-126000000D03*
D10*
X148080000Y-126000000D03*
D12*
X139190000Y-123460000D03*
X145540000Y-120920000D03*
%TD*%
D10*
%TO.C,SW11*%
X118920000Y-126000000D03*
D11*
X124000000Y-126000000D03*
D10*
X129080000Y-126000000D03*
D12*
X120190000Y-123460000D03*
X126540000Y-120920000D03*
%TD*%
D10*
%TO.C,SW8*%
X118920000Y-107000000D03*
D11*
X124000000Y-107000000D03*
D10*
X129080000Y-107000000D03*
D12*
X120190000Y-104460000D03*
X126540000Y-101920000D03*
%TD*%
D10*
%TO.C,SW6*%
X137920000Y-88000000D03*
D11*
X143000000Y-88000000D03*
D10*
X148080000Y-88000000D03*
D12*
X139190000Y-85460000D03*
X145540000Y-82920000D03*
%TD*%
D17*
%TO.C,D3*%
X136500000Y-61000000D03*
X139475000Y-61000000D03*
%TD*%
D18*
%TO.C,D4*%
X103955000Y-80000000D03*
X100980000Y-80000000D03*
%TD*%
D17*
%TO.C,D8*%
X117500000Y-98500000D03*
X120475000Y-98500000D03*
%TD*%
%TO.C,D2*%
X117000000Y-61035000D03*
X119975000Y-61035000D03*
%TD*%
%TO.C,D5*%
X117500000Y-80000000D03*
X120475000Y-80000000D03*
%TD*%
%TO.C,D6*%
X136500000Y-80000000D03*
X139475000Y-80000000D03*
%TD*%
D19*
%TO.C,J2*%
X122000000Y-54500000D03*
D20*
X122000000Y-51960000D03*
X122000000Y-49420000D03*
X122000000Y-46880000D03*
X122000000Y-44340000D03*
X122000000Y-41800000D03*
%TD*%
D17*
%TO.C,D9*%
X136525000Y-99000000D03*
X139500000Y-99000000D03*
%TD*%
D18*
%TO.C,D1*%
X104442500Y-61000000D03*
X101467500Y-61000000D03*
%TD*%
D17*
%TO.C,D12*%
X136000000Y-118000000D03*
X138975000Y-118000000D03*
%TD*%
%TO.C,D11*%
X117535000Y-117965000D03*
X120510000Y-117965000D03*
%TD*%
D18*
%TO.C,D7*%
X103930000Y-98500000D03*
X100955000Y-98500000D03*
%TD*%
%TO.C,D10*%
X103965000Y-117477500D03*
X100990000Y-117477500D03*
%TD*%
M02*
